<svg version="1" xmlns="http://www.w3.org/2000/svg" width="400" height="349.333" viewBox="0 0 300 262"><g fill="#353535">
    <path d="M131.5 1.1C68.4 7 16.5 43.4 3.4 91c-2.5 9.1-2.6 32.9-.2 41.8 6.1 22.1 19.4 41.3 39.3 56.7 7.8 6 21 14.5 22.7 14.5 1.5 0 .8 7.8-1.3 14.6-2.4 7.7-6 15.2-11.9 25-4.7 7.6-5.2 11.9-1.7 15.2 8.2 7.7 39-6.2 62.4-28.2l9-8.5 9.4 1c20.9 2.4 51.7-.4 73.1-6.6 63.3-18.4 103-67.7 94.4-117.1-3.7-21.3-12-36.9-28.5-53.5-32.8-33-84.8-49.8-138.6-44.8zm44.4 19.5c26.5 3.9 50 13 68 26.4 24.5 18.3 37.1 40.5 37.1 65.3 0 11.5-2 19.9-7.6 31.2-19.8 40.6-77.3 66.2-137.6 61.5-8.6-.7-17.3-.9-19.4-.6-2.8.6-5.9 2.9-13.3 9.9-9.7 9.4-22.7 19.4-23.7 18.4-.4-.3.4-3.4 1.5-6.8 1.2-3.4 2.7-9.6 3.3-13.8 1.9-13.5-1.1-19.1-13.6-26-38.8-21.3-58-56.8-49.1-91 9.6-37 50.9-67 102.7-74.5 13.1-1.9 38.7-1.9 51.7 0z"/>
    <path d="M134.5 47.7C94.9 52.5 63.4 70.2 52.1 94c-2.7 5.7-3.7 9.1-3.9 14.2-.4 5.9-.2 6.7 1.7 7.7 1.5.8 2.7.9 4.1.1 2-1.1 2.4-2.3 3.4-9.5 1-7.3 6.1-15.8 13.9-23.1 8.2-7.7 14.8-11.9 26.6-17C111.2 60.6 133 56 147.2 56c6.7 0 9.9-3.8 6.2-7.4-1.5-1.6-10.4-2-18.9-.9z"/></g>
</svg>