<svg version="1" xmlns="http://www.w3.org/2000/svg" width="276" height="400" viewBox="0 0 207 300"><g fill="#353535"><path d="M87 1.5C47.6 7.9 14.6 37.4 4.1 75.2 1.8 83.7 0 95.9 0 103.3c.1 14.6 7 34.8 20.2 59.2 4.5 8.2 11.2 20.6 15 27.5 8.7 15.9 12.9 26.8 21.8 56 10.2 33.6 15 43 24.7 48.7 11.9 7 31.7 7 43.6 0 9.4-5.6 14.5-15.4 23.6-45.2 11.2-37.2 14-44 30.4-73.7 23.4-42.1 29.2-60.1 26.7-82.7-5-45.4-37-81.1-81.5-90.7C114.5.2 97.2-.2 87 1.5zM122.8 21c39.1 9.4 67.5 46.5 64.9 84.9-1 14.4-5.8 26.7-22.6 57.4-5.4 10-11.6 21.7-13.7 26l-3.8 7.7H59.4l-3.8-7.7c-2.1-4.3-7.3-14.1-11.6-21.8-10.9-19.7-17.2-32.6-21.1-43-3.1-8.5-3.3-9.7-3.3-22.5 0-15.5 1.3-21.7 7.4-34.5 4.8-10.3 8.2-15.2 16.1-23.2 11.2-11.4 24.2-18.9 39.3-22.9 12.1-3.1 28.5-3.3 40.4-.4zm16.4 194.6c.3.3-.1 2.7-1 5.3l-1.5 4.8-30.6 3.7c-16.8 2.1-31.2 3.8-32 3.9-1.5.2-7.5-15.9-6.5-17.4.6-1 70.7-1.3 71.6-.3zm-6.2 20.7c0 1.4-4.7 17.8-5.3 18.3-.1.2-9.5 1.4-20.7 2.8-11.3 1.4-21.7 2.8-23.2 3.1-2.5.4-2.8.1-5.2-7.3-1.4-4.2-2.6-8.4-2.6-9.3 0-1.3 4.6-2.2 27.8-5.1 15.2-2 28-3.6 28.5-3.7.4 0 .7.5.7 1.2zm-9.6 30.9c-1.9 6.3-6.9 12.4-11 13.4-1.3.3-6.2.4-11 .3l-8.6-.4-3.9-4.4c-2.2-2.4-3.9-4.9-3.9-5.6 0-1.1 25.6-5.1 35.3-5.4 3.5-.1 3.8.1 3.1 2.1z"/><path d="M94.5 47.7c-16.2 2.1-33.7 15.1-41.3 30.6-3.3 6.6-6.1 17.4-6.2 23.3 0 4.2 3.2 7.1 6.3 5.7 2-.9 2.5-2.2 3.4-9.1 2.6-19.9 16.5-35.6 35.8-40.7 3.3-.8 7.6-1.5 9.7-1.5 2.7 0 4-.5 4.8-1.9 1.4-2.7 1.3-3.7-.6-5.5-1.5-1.5-5.1-1.8-11.9-.9z"/></g></svg>