<svg version="1" xmlns="http://www.w3.org/2000/svg" width="400" height="337.333" viewBox="0 0 300 253"><g fill="#353535">
    <path d="M94.4 1.8c-5.7 2-11 6-14.1 10.7-1 1.6-5 10.6-8.7 20-3.7 9.3-6.9 17.1-7 17.2-.1.1-9.8 1.8-21.6 3.8C15 58.3 10.5 60.3 4.2 71l-2.7 4.5-.3 77.8C1 230.8 1 231 3.1 236c2.4 5.5 8.8 12 14.6 14.7 3.6 1.7 11.1 1.8 130.2 2.1 145 .3 133.5 1 143.1-8.6 8.9-9 8.5-4.4 8.5-89.7 0-60.3-.3-74.9-1.4-78.8-1.7-5.9-8.5-13.7-14.3-16.5-2.5-1.1-12.8-3.4-24.3-5.2-11-1.8-20.9-3.7-22.1-4.1-1.5-.5-3.8-5.1-8.9-18-3.8-9.5-8.3-19.1-10-21.3-1.8-2.5-5.4-5.3-9-7.1l-5.9-3-52-.2C103.7 0 99.1.2 94.4 1.8zm108.1 18.8c1.2.8 5.7 10.6 11 23.7l9 22.2 21.5 3.6c11.8 2 23.7 3.9 26.4 4.3 3.4.6 5.8 1.6 7.8 3.6l2.8 2.8v147.4l-2.9 2.9-2.9 2.9H24.8l-2.9-2.9-2.9-3 .2-74.1.3-74.2 2.6-2.2c2.1-1.9 6.9-2.9 28.5-6.5 14.2-2.4 26.4-4.8 27-5.4.6-.7 4.8-10.5 9.4-22 5.9-14.8 8.9-21.3 10.7-22.7 2.5-1.9 4.2-2 52.7-2 42.8.1 50.4.3 52.1 1.6z"/>
    <path d="M132 68.1c-26.3 6.8-47.3 27.6-54.1 53.6-2.8 10.7-2.8 26.9 0 37.6 7 26.6 27.8 47 55.1 53.8 7.1 1.8 10.3 2.1 20.5 1.6 13-.6 19.9-2.3 30-7.4 28.7-14.6 45.2-45.9 40.5-76.8-3.9-25.8-18.5-45.9-41.5-57-4.9-2.4-12.2-5-16.2-5.9-9.9-2.2-24.9-2-34.3.5zM167.2 87c8.6 2.6 20.5 10.6 25.9 17.3 5.2 6.5 10.5 17.2 12 24.6 1.5 7.3.6 23.2-1.7 29.6-6.5 18.4-21.1 31.7-40 36.5-9.8 2.5-17 2.5-26.8 0-10.4-2.6-16.7-6.2-25.2-14.2-23.1-21.9-23.3-57-.5-79.9 15.3-15.3 35.6-20.3 56.3-13.9z"/><path d="M141 104.4c-12.8 3.6-21.8 12-25.9 24.3-3.8 11.3-2.3 17.8 3.7 15.7 2.4-.8 2.8-1.6 3.4-6.7 1.7-13.8 11.5-23.4 25.7-25.3 6.3-.8 8.2-3.1 5.6-7-1.8-2.7-5.1-3-12.5-1z"/></g>
</svg>