<svg version="1" xmlns="http://www.w3.org/2000/svg" width="276" height="400" viewBox="0 0 207 300"><g fill="#353535"><path d="M51.6 1.5c-5.1 1.8-9.2 5.9-11 10.9-.8 2.3-4.3 19.6-7.8 38.5l-6.2 34.5-5.3 6.7C6.6 110.8.1 131.5 1.3 154.9c1 18.7 7 35.1 18.4 50.1l5.6 7.5 6.8 36.5c3.7 20.1 7.2 37.7 7.7 39.1 1.5 3.9 6.9 8.7 11 9.9 2.5.8 17.7 1 45.9.8l42.1-.3 3.8-3.1c2.1-1.6 4.5-4.6 5.5-6.5.9-1.8 4.7-19.8 8.4-39.7l6.7-36.4 5.5-7.1c6.3-8.4 12.2-20.2 15.3-30.4 2.1-6.8 2.4-7.3 5-7.3 6 0 12.5-4.3 15.6-10.2 1.9-3.7 1.8-12.2-.3-16.5-2.2-4.6-8.4-9-13.9-9.9l-4.4-.6-2.1-7.2c-2.7-8.9-8.4-20.3-14.1-28.1-2.4-3.3-4.7-6.5-5-7-.3-.6-3.6-17.4-7.3-37.5-4-22.1-7.4-38.2-8.7-40.7-2.1-4.6-5.3-7.3-10.7-9.1-5.3-1.8-81.3-1.6-86.5.3zM133 19.6c0 .4 2 11.4 4.5 24.6 2.5 13.2 4.4 24.2 4.2 24.4-.2.3-2.4-.7-4.8-2-12-6.7-34.3-11.4-47.9-10.1-10.7 1.1-22.7 4.3-31.6 8.4-7 3.3-8.4 3.7-8.4 2.3 0-1.8 7.8-44.8 8.5-47 .3-.9 8.8-1.2 38-1.2 20.6 0 37.5.3 37.5.6zM115.5 78c21 6.6 36.9 20.2 46 39.5 5.3 11.2 7.5 20.7 7.5 32.8 0 50.8-50.7 86.6-99.1 70.2-37.2-12.7-58.3-52.7-47.8-90.6 3.6-13 10-23.8 19.6-33.2 10.6-10.4 22.6-17 36.7-20.2 9.1-2.1 28.2-1.3 37.1 1.5zM56.1 234.5c15.1 7.1 35.6 10.1 51.6 7.5 8-1.3 21.8-5.7 28.6-9.2 2.2-1.1 4.1-1.8 4.3-1.6.2.2-1.7 11.2-4.1 24.4-2.5 13.1-4.5 24.2-4.5 24.7 0 .4-17 .6-37.7.5l-37.7-.3-4.2-22.5c-4.1-21.4-4.9-27-4-27 .2 0 3.7 1.6 7.7 3.5z"/><path d="M90.5 85.4c-4.7 2-6.8 8.2-4.5 12.7 1.2 2.2 6 4.9 8.9 4.9 1.1 0 3.3-1.2 5-2.6 7.9-6.6 0-19.2-9.4-15zm-40.8 16.7c-.9.5-2.4 2.4-3.3 4-4.5 8.9 6.6 17.1 14.3 10.5 3.9-3.4 3.9-9.8 0-13.2-3-2.5-7.8-3.1-11-1.3zm77.5 8.6C105.7 128.1 87 144.1 86 146c-1.8 3.4-1.1 7 1.9 10.1 5.7 5.7 10 3.9 20.1-8.4 23-27.9 33-40.8 33-42.5 0-4.3-3.1-3.1-13.8 5.5zm-95.7 32.9c-3.5 3.8-3.4 8.7.4 12.5 3.7 3.7 7.9 3.8 12 .3 4.1-3.4 4.4-9.2.6-12.9-3.5-3.6-9.7-3.5-13 .1zm112.7-.3c-7.3 7.8 1.2 19.2 10.6 14.3 3.3-1.7 5.7-7 4.6-10.2-2.3-6.5-10.8-8.8-15.2-4.1zm-93.9 37.9c-2.9 1.4-5.6 7.2-4.7 10.1 2.4 8.1 12.6 9.8 16.7 2.8 2-3.4 2.1-5.1.5-8.6-2.1-4.6-7.8-6.6-12.5-4.3zm80.1-.2c-4.7 1.9-6.8 8.5-4.3 13.2.6 1.1 2.6 2.6 4.5 3.4 8.8 3.7 16.5-6.9 10.2-14-2.5-2.9-7.2-4-10.4-2.6zm-42.8 19.1c-3.5 4.1-3.4 8.3.3 12 3.3 3.2 6.7 3.7 11 1.4 3.3-1.6 4.1-3.3 4.1-8.1 0-8.1-10.2-11.6-15.4-5.3z"/></g></svg>