<svg version="1" xmlns="http://www.w3.org/2000/svg" width="400" height="288" viewBox="0 0 300 216"><path d="M147.5 1.1c-18.1 2.7-34.3 11-47.5 24.3-6.6 6.7-16 19.8-16 22.4 0 1-.7 1.2-2.2.8-21.4-5.9-45 7-51.5 28.2-1.7 5.5-1.9 18.5-.4 22.4 1 2.6.7 3-3.2 5.7C15.4 112.6 5 127.8 1.9 141c-1.6 6.7-1.5 20.7 0 27.5 1.8 7.5 8.4 20.4 13.6 26.2 5.7 6.4 17.2 14.3 25.6 17.4l6.4 2.4 95 .3c107.5.3 102.4.6 118.8-7.6 33.4-16.7 47.4-58.7 30.8-92.6-7-14.2-17.2-24.5-31.6-31.7-4.4-2.2-10.2-4.5-13-5.2l-4.9-1.3-1.3-6.8C233.1 25 191.6-5.3 147.5 1.1zm27.7 19.8c14.2 3.7 26.5 11.7 35.1 22.9 8.1 10.5 11.9 20.1 13.7 34.8.6 4.6 1.3 9.1 1.6 9.9.9 2.3 4.9 4.1 14.3 6.4 11.5 2.9 18.9 7.1 26.5 15.1 12.6 13.4 17.1 29.7 13.1 46.9-4.7 19.6-21.7 35.8-41.2 39-4.8.8-32.9 1.1-96.8.9-85.9-.3-90.2-.4-94.5-2.2-16.9-7.1-26.6-20.4-27.8-37.7-1-16.9 6.6-30 23.6-40.3 9-5.4 9.8-7.7 6.2-18.1-2.3-6.6-2.5-11.1-.8-16.7 1.6-5.3 7.8-12.2 13-14.2 5.2-2.1 14.9-2.2 20.7-.2 5.7 2.1 10.4 2 12.3-.2.8-.9 3.7-6 6.4-11.1 8.3-16.3 21.3-27.9 37.5-33.5 9.7-3.3 9.9-3.3 20.5-3.5 6-.1 11.6.5 16.6 1.8z" fill="#353535"/></svg>