<svg version="1" xmlns="http://www.w3.org/2000/svg" width="400" height="457.333" viewBox="0 0 300 343"><path d="M47.6 1.5c-9.8 3.5-11.9 6.8-20.3 32-6.5 19.8-6.8 20.3-9.7 20.9-5.4 1.1-11.4 5.4-14.3 10.4L.5 69.5V91c0 20.1.1 21.8 2.2 25.5 4.5 8.4 10.4 11.5 21.8 11.5 5.2 0 7.7.4 7.9 1.2.2.7 2.3 18.8 4.6 40.3 2.3 21.4 5.2 48.4 6.5 60 3.9 34.2 7.5 66 9.1 81.5 2 19.5 4.6 24.9 13.8 29.1 3.9 1.8 8.2 1.9 83.4 1.9 69.4 0 79.7-.2 83-1.6 4.4-1.8 8.8-5.8 11-9.9 1.1-2.2 4.7-31.2 12.6-102.5l11.1-99.5 9.2-.5c8.1-.5 9.7-.9 13.5-3.5 2.5-1.8 5.3-4.9 6.6-7.5 2.2-4.4 2.3-5.2 2-27.1-.3-22-.4-22.6-2.7-26.1-3-4.4-7.8-7.7-13-9l-3.9-1-6.7-20.2c-3.7-11-7.3-21.2-8-22.6-1.7-3.2-5-6.3-9.5-8.6C251.7.6 247 .5 151.5.3 67.4.1 50.9.3 47.6 1.5zm198 20.3c.6.4 3.3 7.2 5.9 15.2 2.6 8 5 15.1 5.3 15.7.3 1-21.4 1.3-106.7 1.3C91.2 54 43 53.9 43 53.7c0-.3 9.6-29.1 10.5-31.5.3-.9 20.4-1.2 95.7-1.2 52.4 0 95.8.4 96.4.8zM278 91v16l-128.2-.2-128.3-.3-.3-14.5c-.1-7.9 0-15 .2-15.7C21.8 75.2 46 75 150 75h128v16zm-32.5 43.9c-.4 3.8-1.2 11.1-1.8 16.2l-1.2 9.4-92.7.3c-73.9.2-92.8 0-92.8-1 0-.7-.7-6.9-1.5-13.8S54 132.3 54 130.7V128h192.2l-.7 6.9zm-4.5 38.9c0 1.5-2.5 24.8-5.5 51.7-3 27-5.5 49.8-5.5 50.7 0 1.7-4.5 1.8-80 1.8s-80-.1-80.1-1.8c0-.9-2.6-24.7-5.8-52.7-3.2-28.1-5.6-51.3-5.4-51.8.2-.4 41.3-.7 91.4-.7H241v2.8zm-13 117.9c0 1.6-.7 8.2-1.5 14.8-.8 6.5-1.5 12.5-1.5 13.2 0 1.1-14.5 1.3-74.9 1.3H75.2l-.6-3.8c-.3-2-1-8.2-1.6-13.7-.6-5.5-1.3-11-1.5-12.3L71 289h157v2.7z" fill="#353535"/></svg>