<svg version="1" xmlns="http://www.w3.org/2000/svg" width="400" height="301.333" viewBox="0 0 300 226"><path d="M58 3c-1.9 1-15.2 13.7-29.6 28.2C4.5 55.3 2.2 57.9 1.1 62.2c-.8 3.7-.8 5.9 0 9.4 1.3 4.9-3.1.1 99.4 109.6 19.8 21.2 37.5 39.6 39.4 40.9 4.4 3.1 15.1 3.4 19.3.7 3.7-2.4 134.8-142.2 137.5-146.7 2.8-4.4 3.1-12.7.7-17.4-2.5-5-51.2-53.6-55.9-55.8-3.8-1.8-8.1-1.9-92-1.8-84.1 0-88.2.1-91.5 1.9zm47 16.8c0 .4-3.1 3.9-6.9 7.6-6.3 6.3-7.2 6.8-8.8 5.5-5.9-4.6-14.8-12.3-15.1-13-.2-.5 6.6-.9 15.2-.9s15.6.3 15.6.8zm64.9-.1C169.8 20.9 151.3 36 150 36c-1.3 0-19.9-15.1-20-16.3 0-.4 9-.7 20-.7s20 .3 19.9.7zm56.1-.1c0 .4-.6 1.2-1.4 1.8-.8.6-4.7 3.8-8.6 7l-7.1 5.9-7-6.9c-3.8-3.7-6.9-7.2-6.9-7.6 0-.5 7-.8 15.5-.8s15.5.3 15.5.6zm-96.1 12.5c6.7 5.5 12.1 10.4 12.1 10.8 0 .4-4.5 4.4-10 9l-10 8.3-2.4-1.9c-1.3-1-6.7-5.4-12-9.8l-9.6-8 9.2-9.3c5.1-5 9.6-9.2 9.9-9.2.4 0 6.2 4.5 12.8 10.1zm62.3-1.4c4.9 4.8 8.8 9.1 8.8 9.5 0 .4-5.2 5.1-11.5 10.4L178 60.2l-7.1-5.8c-3.9-3.3-8.5-7.1-10.2-8.6l-3.2-2.7 2-2.1c4.1-4 22-18.9 23-18.9.5-.1 4.9 3.8 9.7 8.6zm-119.9 0c5.1 4.2 9.9 8.2 10.7 9 1.2 1.1-.3 3-11 13.8L59.5 66h-40L41 44.5C52.8 32.7 62.6 23 62.8 23c.2 0 4.5 3.5 9.5 7.7zm185.9 13C269.7 55.1 279 64.8 279 65.2c0 .5-8.7.8-19.3.8h-19.2L228 53.5c-8.7-8.7-12.1-12.8-11.4-13.5 2.1-2.1 19.9-16.9 20.4-17 .3 0 9.8 9.3 21.2 20.7zM102.5 55.8c5 4.2 9.7 8.1 10.5 8.9 1.2 1.1-2 1.3-19.5 1.3h-21l9.4-9.4c5.2-5.2 9.9-9.2 10.5-8.9.6.4 5.2 4 10.1 8.1zm115.5.7l9.5 9.5h-42l4.5-3.8c2.4-2 7.4-6.3 11-9.4 3.6-3.1 6.7-5.7 7-5.8.3 0 4.8 4.3 10 9.5zm-57.9.7l10 8.3-10.1.3c-5.5.1-14.6.1-20.1 0l-10.2-.3 9.9-8.2c5.4-4.6 10-8.3 10.2-8.3.2 0 4.8 3.7 10.3 8.2zm-73.4 62.3c14.5 24.1 27.5 46 28.9 48.5l2.6 4.5-5-5C102.4 156.7 28 76.7 28 75.9c0-.6 7-.8 16.2-.7l16.2.3 26.3 44zm30.7-42.8c.3 1 5.3 25.9 11.1 55.3s10.9 54.4 11.2 55.5c.5 1.8.3 1.8-1 .5-2-2.1-66.7-110.6-66.7-111.9 0-.8 7.4-1.1 22.4-1.1 20.5 0 22.5.2 23 1.7zm55.6-1c.2 2.1-22.6 114.3-23.1 114.3-.6 0-23-111.1-22.9-113.8 0-.9 5.3-1.2 23-1.2 12.7 0 23 .3 23 .7zm55 .2c0 1.4-67.1 113.4-67.6 112.9-.3-.4 21.1-109.4 22.1-112.6.5-1.5 45.5-1.8 45.5-.3zm44-.1c0 .4-18.9 21-42.1 45.7-42.3 45.3-48.6 51.8-47.7 50 1.2-2.4 54.3-91.3 56-93.8l1.9-2.7h16c8.7 0 15.9.4 15.9.8z" fill="#353535"/></svg>