<svg version="1" xmlns="http://www.w3.org/2000/svg" width="400" height="374.667" viewBox="0 0 300 281"><g fill="#353535"><path d="M23.6 1C14.2 2.6 4.4 11.2 2 19.8.5 25.4.8 220.4 2.3 224.7c2.5 6.6 7.3 11.9 13.7 15.2l6.3 3.1H122v6c0 4.1-.4 6-1.2 6-.7 0-14.3 1.8-30.2 3.9-28.1 3.7-29 3.9-31.3 6.5-2.5 2.9-3 7.4-1.2 10.8 2.6 4.8 2 4.8 91.9 4.8 88.3 0 88.3 0 91.9-4.3 2.2-2.8 1.6-8.6-1.2-11.5-2.4-2.4-4.4-2.8-31.4-6.3-15.8-2.1-29.4-3.9-30-3.9-.9 0-1.3-1.9-1.3-6v-6h49.3c54.8 0 54.8 0 62.5-6.6 2.3-1.9 5.3-6 6.9-9.2l2.8-5.7V123c0-81.3-.2-99.3-1.4-103.3-1.9-6.4-8.6-13.8-15.3-16.8L277.5.5 153 .4C84.5.3 26.3.6 23.6 1zm254.5 20.9l2.9 2.9v96.7c0 64.4-.3 97.3-1 98.6-2.8 5.1 2.5 4.9-130 4.9-134.5 0-127.4.3-129.9-5.7-.8-2.1-1.1-27.9-.9-99.1l.3-96.4 2.8-2.4 2.8-2.4h250.1l2.9 2.9z"/><path d="M40.9 40.9L38 43.8v137.4l2.9 2.9 2.9 2.9h212.4l2.9-2.9 2.9-2.9V43.8l-2.9-2.9-2.9-2.9H43.8l-2.9 2.9zM253 112.5V178H47V47h206v65.5z"/></g></svg>