<svg version="1" xmlns="http://www.w3.org/2000/svg" width="400" height="249.333" viewBox="0 0 300 187"><g fill="#353535"><path d="M130 1.5C77.7 8.7 30.8 39.1 5.2 82.6-.3 91.8-.3 94.9 5 104.1c31 53 96.4 87.1 157.2 81.8 49.6-4.2 94-28.8 123.9-68.4 5.6-7.4 12.6-19.1 13.4-22.6 1.3-5.2-11.3-25-25.8-40.5-36.5-39-93-59.8-143.7-52.9zm43.4 19.1c39.5 6.3 78.8 31.1 100.7 63.7 6.9 10.3 7.1 8.9-3.2 22.8-22.2 30.2-58.8 52.3-97.6 58.9-55.9 9.6-116.4-17-148.5-65.2-5.5-8.3-5.7-7.4 4.3-20.9C51.6 49.3 88 27.2 127 20.5c10.8-1.9 34.3-1.8 46.4.1z"/><path d="M140.5 28.6c-15.8 2.5-33.2 12.7-42.1 24.6-5.5 7.4-10.6 18-12.4 25.8-1.8 7.6-1.6 22.2.4 30 4 15.6 15.8 31.9 29 39.9 33 19.8 76 7.6 92.6-26.3 5.2-10.6 7-18.1 7-29.1 0-17.6-5.6-31.6-17.6-44.4-12.2-13-27.1-19.8-44.8-20.6-5-.2-10.4-.1-12.1.1zm27.6 11.8c14 4.9 25.5 15 32 28.1 10.9 22.1 6.9 46.7-10.5 64.1-11.1 11.1-24.1 16.7-39.1 16.7-31.8.2-56.6-24.3-56.5-55.7.1-11.3 1.1-16.1 5.8-25.5 12.1-24.6 42.1-36.8 68.3-27.7z"/><path d="M141.7 57.1c-10.5 2.5-21 11-25.4 20.5-3 6.5-4.2 16.6-2.3 18.9 3.1 3.7 8 .5 8-5.3 0-4.9 4.9-15.1 9-18.5 5.4-4.6 7.9-5.6 20.1-8.1 3.4-.7 4.4-3.2 2.4-6.2-1.7-2.6-4.8-2.9-11.8-1.3z"/></g></svg>