<svg version="1" xmlns="http://www.w3.org/2000/svg" width="276" height="400" viewBox="0 0 207 300"><g fill="#353535"><path d="M11.6 6.2C19.3 35.6 22 71.5 18.5 100c-.9 6.9-3.8 23.1-6.6 36-8.4 39.6-10 49.7-10.6 69.1-.5 14.5-.3 18.9 1.2 25.5 6.9 31.4 29.4 54.7 63 65.1 8.9 2.7 9.4 2.7 34.5 2.7 23.6 0 26.4-.2 37.5-2.6 35.1-7.5 52.1-21.5 61.9-50.8 1.9-5.8 4.2-14.5 5.1-19.4 1.7-10 2-31.5.5-42.1-3.3-23.1-13.3-50.1-27-72.5-5.7-9.3-17-25.3-17.6-24.8-.1.2-1 3.9-1.9 8.3-1.8 9-8.4 23.2-14.2 31l-3.8 5-.7-7.7c-2.3-22.7-13-47-30-68.1-2.5-3.2-5-5.9-5.4-6-.4-.1-1.3 3.5-2 8-1.5 10.4-5.3 22.3-11 34-6.3 12.8-6.6 12.9-9.9 3.6-6.2-17.7-16.9-37-28.7-52.1-7.5-9.6-24.1-26.5-33.3-34.1-9.8-8-9.5-8-7.9-1.9zm32.2 55.5C50.1 71.5 62.2 96.6 67 110c2.3 6.3 5.6 17.1 7.4 24l3.3 12.5 12.5-19c6.9-10.5 14.6-22.8 17.1-27.3 2.4-4.6 4.7-8 5-7.5.3.5 1.4 4.4 2.6 8.8 3.8 15.3 7.1 44.9 7.1 64.7 0 6 .4 10.8.8 10.8 1.3 0 21.3-20.8 27.4-28.5 3.1-3.9 7.9-10.3 10.6-14.3l5.1-7.4 5.2 10.3c11.1 22.3 16.3 43.4 16.3 66.9 0 13.7-.3 16.7-2.8 26.5-6.5 25.7-16.2 36.8-38.1 44-13.5 4.4-25 5.8-47 5.9-23 .1-29.3-1.1-43.9-8.6-11.7-6.1-23.8-18.3-29.5-29.8-10-20.4-9.5-39 2.4-95 3-14 6.1-29.6 6.9-34.5 2.4-13.9 3.9-35.9 3.3-47.3-.3-5.6-.2-10.2.2-10.2.3 0 2.6 3 4.9 6.7z"/><path d="M45.6 145.7c-7.3 22.2-9.6 35.7-10.3 59.5l-.6 18.7 2.8 1.3c2.4 1.1 2.9 1 4.5-.9 1.4-1.8 1.8-5.1 2.3-19.5.3-9.5 1.1-20.2 1.7-23.8 1.4-8.7 5.1-24.2 5.7-23.6.4.3 4.6 9.9 19.1 43.3 1.5 3.5 3 6.3 3.4 6.3.7 0 13.5-17.7 18.4-25.4 1.6-2.5 3.1-4.6 3.4-4.6.3 0 1.1 3.3 1.7 7.3 1.2 7.6 7.9 29.7 9 29.7.3 0 5.8-2.7 12.2-6.1 14-7.3 22.1-13 32-22.3l7.4-7.1-.6 15c-.5 11.7-1.2 17.1-3.2 24.5-3.8 13.9-3.9 14.5-2.1 15.9 2.4 2 5.9.9 7.5-2.4 2.2-4.6 4.9-15.7 6.2-25.3 1.3-10.1.6-33.6-1.4-42.6l-1.2-5.9-7.2 8.4c-9 10.6-17 18.3-25.3 24-7.2 5.1-17.2 10.9-18.7 10.9-.5 0-1.7-2.4-2.6-5.3-3.1-10.2-4.7-21.9-4.7-35.3 0-7.4-.3-13.4-.7-13.4-.5.1-3.3 4-6.2 8.8-11.8 18.7-21.3 33.2-22 33.2-.9 0-13.5-29.6-19.7-46.5l-5.1-13.9-5.7 17.1z"/></g></svg>