<svg version="1" xmlns="http://www.w3.org/2000/svg" width="400" height="400" viewBox="0 0 300 300"><path d="M150.5 2c-1.6 1.7-1.6 2.4-.5 6.5 1.8 6.3.8 11.5-4.5 25.1-5.5 14.1-6.9 20.2-6.2 26.7.8 6.2 3 9.7 6.1 9.7 4 0 4.9-2.2 3.6-8.2-1.4-6.4-.3-12 5.8-27.8 2.2-5.8 4.4-12.8 4.8-15.7.8-6.6-1.1-14.8-3.9-16.8-2.7-1.9-3-1.9-5.2.5zM198 42.5c-1 1.2-1.1 2.4-.1 5.4 1.7 5.8 1.4 10.2-1.3 17.8-1.4 3.7-4.1 11.3-6 16.8-3.8 10.6-4.4 16.2-2.4 22.7 1.3 4.3 3.8 6.3 6.8 5.3 2.6-.8 3.3-3.7 2-8.6-1.6-5.7-.6-10.3 5.3-25.4 4.5-11.6 5.1-13.9 5.1-21 .1-9.5-1.6-13.8-5.5-14.3-1.4-.2-3.1.4-3.9 1.3zM84.6 43.9c-1.6 1.7-1.6 2.5-.6 5.7 1.9 5.6.6 12.9-4.4 25.8-5.8 14.9-7.3 22.6-5.7 29.2 1.5 5.9 2.6 7.4 5.6 7.4 3.9 0 4.9-2.3 3.7-8.3-1.3-6.6-.3-12.2 4.4-24 6.3-15.8 7.6-22.9 5.4-30.9-1.8-6.5-5.2-8.4-8.4-4.9zm59.4 68.8c-27.4 2.6-49.5 12.7-67.1 31-14 14.4-21 27.6-27.5 52.1-.3.9-4.3 1.2-15.6 1.2-17.6 0-20.9 1-27 7.8-5.5 6.1-7.4 15.5-4.5 22.5.8 1.8 9 11.7 18.3 22.2l16.8 19 .7 7.1c.8 8.3 3.4 13.8 8.3 18.2 7.3 6.3 4.8 6.2 103.2 6.2 59.8 0 91-.4 94.3-1.1 10.9-2.3 18.1-11.4 18.1-23v-6.2l10.3-11.6c5.7-6.4 13.7-15.5 17.9-20.3 9.1-10.2 10.7-14.3 8.8-22.5-1.6-7.2-6-12.9-12.3-15.9-4.8-2.2-6.4-2.4-20.4-2.4-11.6 0-15.3-.3-15.3-1.3 0-.6-.3-2.2-.6-3.4-.6-2 1.2-3.1 19.6-12.3 24.3-12.2 27.8-14.3 29.1-17.7 2.1-5.5-2.4-12.3-8.1-12.3-1.9 0-11.4 4.2-25.1 11.1-12.2 6-22.2 10.9-22.3 10.7-.1-.2-2.1-3.6-4.4-7.5-17.2-29.4-45.7-47.8-79.3-51.3-5.6-.5-10.6-.9-11.3-.8-.6 0-2.7.3-4.6.5zm28.6 11.8c22.6 5.7 42.2 19.4 55.1 38.5 2.8 4.1 7.3 12.4 7.3 13.3 0 .6-8 4.1-8.3 3.6-.2-.2-2.3-3.8-4.7-7.9-5.6-9.7-19.1-23.2-28.8-29-30.3-17.9-68.6-14.9-96.2 7.4-13.3 10.8-23.1 26.4-28.6 45.3-.2.8-2.1 1.3-4.9 1.3-5.4 0-5.5-.6-2.1-10.6 9.1-26.9 29.1-48.2 54.7-58.3 11.2-4.4 19.8-5.9 34-6 10.4-.1 14.4.3 22.5 2.4zm-2.5 18.6c11.1 3.1 21.9 9.2 30.5 17.1 7 6.6 17.4 20.6 17.4 23.5 0 .7-1.8 2.2-4 3.3l-4 2-2.1-4.2c-12.7-25.1-43-39.3-70.9-33.4-18.7 3.9-36.3 17.5-44.8 34.5-2.3 4.6-4.2 9-4.2 9.7 0 1-1.4 1.4-5.1 1.4-5.1 0-5.1 0-4.5-2.8 1.3-5.6 9.7-20.9 14.9-27.2 11.2-13.5 28.5-23.3 46.2-26 8.3-1.2 21.8-.3 30.6 2.1zm-7.2 17.4c14.2 3.4 29.9 15.1 36.4 27.2l2.8 5.2-4 2.1c-2.2 1.1-4.2 2-4.5 2-.2 0-1.7-2.4-3.4-5.3-3.4-6-10.7-13.1-17.2-16.9-12-7-29.1-7.8-41.6-1.9-9 4.2-16.1 10.5-20.4 17.9l-3.5 6.1-4.9.1c-4.8 0-4.8 0-4.1-2.8 2.1-8.4 14.9-22.9 25.2-28.5 11.3-6.1 26.7-8.1 39.2-5.2zm3.4 21.3c6 3 15.7 11.7 15.7 14.2 0 .5-2.2 1-5.1 1-4.2 0-5.8-.6-8.9-3-5.6-4.5-10.8-6.3-17.5-6.3-6.7 0-14.3 2.8-18.6 6.9-2.3 2.2-3.4 2.5-8.3 2.2l-5.8-.3 3.1-4.2c3.6-5 10.8-10.1 17.6-12.6 7.9-2.8 19.5-1.9 27.8 2.1zM242 196c0 .5-.9 1-2.1 1-1.1 0-1.7-.5-1.4-1 .3-.6 1.3-1 2.1-1s1.4.4 1.4 1zm37.1 20c1 .6 1.9 1.8 1.9 2.8 0 .9-8.3 11.1-18.5 22.5L244 262.1v7.9c0 5.8-.4 8.3-1.6 9.4-1.4 1.4-11.1 1.6-92.3 1.6-69.2 0-91-.3-91.9-1.2-.7-.7-1.2-4.4-1.2-9.2l-.1-8.1L38 241.2c-10.5-11.7-19-21.7-19-22.2s1-1.6 2.2-2.4c2-1.4 15.9-1.6 129.1-1.6 85.5 0 127.5.3 128.8 1z" fill="#353535"/></svg>