<svg version="1" xmlns="http://www.w3.org/2000/svg" width="400" height="349.333" viewBox="0 0 300 262"><g fill="#353535"><path d="M75.8 1.5c-16.4 2.7-32 9.9-44.4 20.5C19 32.7 10.7 45.2 4.8 62.1c-3.2 9.2-3.3 9.7-3.2 26.4 0 15.9.2 17.5 2.8 25.5 5.7 17.2 11.6 26.1 28 42.5 61 61 100.8 99.6 104.6 101.6 6.5 3.4 19.5 3.4 26 0 2.9-1.5 17.9-15.6 42.5-40 20.9-20.7 44.9-44.4 53.4-52.6 8.4-8.3 17.9-18.2 21-22C312.4 103 303.3 44.7 260 15.3 249.1 8 237.7 3.7 222.5 1.4 200.3-2 175 4.5 156.3 18.5l-6.2 4.6-6.3-4.7C124.5 4.2 98.7-2.2 75.8 1.5zm30.1 19.1c11.5 2.7 23.5 9.4 34.4 19l9.7 8.6 6.6-5.8C175.5 25.5 187 20.2 207 19.3c9.7-.5 12.9-.2 20 1.6 25.6 6.4 44.8 25.1 51.7 50.2 1.3 4.5 1.8 9.9 1.7 18.4 0 10.3-.4 13.1-2.8 20-4.3 12.8-9.7 20.7-22.5 33.5-63.3 63.2-100.2 99-102.6 99.6-1.5.4-3.8.3-5.1-.2-2.8-1.1-17.2-14.9-70.8-68.2-23-22.9-43.2-43.6-44.8-46-4-5.8-9.2-17.4-10.9-24.2-1.7-7-1.7-23.9 0-31 .7-3 3.3-9.8 5.8-15 3.9-8.2 5.8-10.7 13.7-18.5 10.2-10.1 18.6-15 31.7-18.4 9.3-2.5 24.7-2.7 33.8-.5z"/><path d="M75.5 48.8C60.1 54.1 50.6 65.1 47.8 81c-.9 5.4-.8 6.3.7 8 2.1 2.3 4.8 2.6 6.3.7.6-.6 1.5-4.1 2.2-7.7 2.5-14.2 12.4-23.6 27-25.7 6.5-1 8.9-3.6 6.4-7.1-1.9-2.8-7.7-2.9-14.9-.4z"/></g></svg>