<svg version="1" xmlns="http://www.w3.org/2000/svg" width="400" height="400" viewBox="0 0 300 300"><g fill="#353535"><path d="M188.1 2.5c-25.1 5.7-45.4 19.2-59 39.4-15.7 23.1-19.9 51.2-11.9 78.9l2.1 7.3-58.1 58.2c-32 32.1-58.6 59.5-59.1 61-1.7 4.3-1.4 37 .3 41 1.7 4.3 7.6 9.3 12.3 10.6 2.1.6 10.8 1.1 19.3 1.1 18.9 0 20.4-.6 31-11.4l7.4-7.6H85c14.1 0 18.6-1.4 23.3-6.9 3.6-4.3 4.7-8.9 4.7-20.2v-9.7l11.8-.4c12.6-.5 15.6-1.4 20.4-6.5 4.1-4.3 4.8-7.4 4.8-21.1v-12.7l11.3-11.2 11.2-11.2 8.5 2.7c7.8 2.4 9.9 2.6 26 2.6 16.4 0 18-.2 26-2.8 29.8-9.7 51.8-30.9 61.5-59 10.3-29.9 5-62.1-14.2-87.4C268.2 21.4 250.9 9.7 230.9 4c-9.8-2.9-33.3-3.7-42.8-1.5zm37.4 19c25.9 6.9 47.3 28.7 53.5 54.8 8.2 34.2-8.2 69.4-39.5 84.8-20.2 9.9-42 10.4-63 1.3l-8-3.4-16.8 16.8c-9.3 9.2-17.5 18.1-18.3 19.9-1 2.2-1.4 7.3-1.4 16.3v13h-11.2c-12.8 0-17.5 1.5-22.1 6.9-3.7 4.4-4.7 8.9-4.7 20.8V263H80.5c-9.9 0-14.3.4-16.3 1.4-1.5.8-6.1 4.9-10.2 9l-7.4 7.6H19v-26.5l61.4-61.4 61.4-61.3-3.3-7.2c-5.9-12.7-7.9-25-6.4-38.3 3.9-34.8 29.3-61 64.4-66.7 5.4-.8 22.9.3 29 1.9z"/><path d="M209.4 41c-3.2 1.6-8 5-10.5 7.5-5.4 5.3-10.9 15-10.9 19.2 0 4 5.4 11.6 16.6 23.3 12.5 13 23.4 21.4 27.8 21.4 8.3 0 21.3-10.1 26.7-20.6 4.1-8.1 3.8-11.4-1.3-18C244.2 56.5 223.4 38 217.5 38c-1.2 0-4.8 1.3-8.1 3zm17.7 13.9c8.9 7.4 16.9 15.7 23.4 24.4 3.1 4.2 2.9 5.5-2.2 12.9-2.8 4.2-11.9 10.8-14.7 10.8-1 0-3.7-1.4-6-3.2-6.7-5.2-21.5-19.9-26.3-26.1l-4.5-5.9 1.8-4c2.3-5 8.9-12 14-14.7 2.2-1.1 4.2-2 4.5-2.1.3 0 4.8 3.5 10 7.9z"/></g></svg>