<svg version="1" xmlns="http://www.w3.org/2000/svg" width="300" height="400" viewBox="0 0 225 300"><g fill="#353535"><path d="M98.3 1.4C85 4 75.4 7.9 65 15.1 39.6 32.7 27.3 59.7 28 96.5c.1 3.3.1 10.3.1 15.6l-.1 9.7-4.4.6C13.3 124 3.3 133.5 1.1 144c-1.4 6.6-1.5 69.7 0 81 1.3 11.1 3.3 17.8 8 27.5 12 24.6 34.1 41.3 61.4 46.1 9.7 1.7 72.2 2 82.5.4 33.4-5.3 60.1-29.4 69.2-62.5 2-7.5 2.2-10.6 2.6-48.2.4-44.5.1-46.9-5.8-55.1-3.5-4.8-11.7-9.9-17.6-10.8l-4.1-.6-.6-25.1c-.6-28.6-1.6-34.7-8.7-49.2-10.7-22-31.1-38.6-54.5-44.6C123.1.3 107.6-.4 98.3 1.4zM128 20.6c18.3 4.2 35.5 18.2 43.6 35.2 5.5 11.5 6.4 17.5 6.4 42.9V122h-19V99.6c0-19.6-.3-23.2-2-28.9-4-13-13.2-23.1-26.5-29.4-5.5-2.6-7-2.8-17.5-2.8-9.7 0-12.4.4-17.3 2.3C84 45.6 73.5 56 68.9 67.8c-2.2 5.3-2.4 7.5-2.7 29.9l-.4 24.3H47V99.7c0-15.6.5-24.3 1.5-29.2 4.9-23.2 25.2-44.4 48-49.9 8-1.9 23.4-1.9 31.5 0zm.2 29.6c7.3 3.4 14.6 10.6 18.4 18.3l2.9 6 .3 23.7.4 23.8H74.9l.3-23.3c.3-22.8.3-23.3 3-28.9 5.1-10.9 11.5-17 22.1-20.9 7.6-2.8 20.2-2.2 27.9 1.3zm75.4 93.3l2.5 2.5-.3 41.8c-.3 40.7-.4 41.9-2.6 48.2-7.1 20-22.8 35.7-42.2 42.3-6.2 2.1-8.3 2.2-45.7 2.5-43.9.3-47 0-60.1-6.5-9-4.4-20.5-14.9-26.1-23.8-2.3-3.5-5.3-9.9-6.8-14.2l-2.8-7.8-.3-39.5c-.2-21.7-.1-40.4.3-41.7.3-1.2 1.5-3.2 2.7-4.3 2.2-2 3.2-2 90.5-2h88.4l2.5 2.5z"/><path d="M106.7 179.5c-5 1.7-8.5 5-10.8 10-2.5 5.4-2.4 9.3.6 20.3 4.9 18.3 9 24.2 16.7 24.2 6.1 0 9-3.8 13.4-17.3 4.1-12.7 5.2-20.8 3.5-26-1.5-4.5-7.8-10.2-12.8-11.6-4.8-1.4-5.9-1.3-10.6.4z"/></g></svg>