<svg version="1" xmlns="http://www.w3.org/2000/svg" width="400" height="262.667" viewBox="0 0 300 197"><path d="M26.1 2.6C16.7 5.9 7.8 14 3.7 22.8c-2.2 4.7-2.2 5-2.5 74.3C1 165.8 1 166.9 3 172.4c2.7 7.2 8.5 14.4 14.6 18.4 10.1 6.4 5 6.2 132.4 6.2 127.2 0 122.3.2 132.2-6.1 8.9-5.7 14.7-14.6 16.7-25.4 1.4-7.5 1.5-124.5.1-132.9-2-12.2-10-22.9-21-28.4l-5.5-2.7-121-.2C44.2 1.1 30 1.3 26.1 2.6zm243.4 18.3c6.7 3.1 11.6 9.7 11.5 15.4-.1 1.7-13.4 12.2-60.8 47.7-40.1 30-62.2 45.9-65.1 46.9-8.6 2.8-8.1 3.1-74.8-47C46 58.2 19 37.3 19 36.5c0-2.5 2.9-8.8 5.3-11.4 1.2-1.3 4-3.2 6.2-4.2C34.3 19.1 39.8 19 150 19c110.3 0 115.7.1 119.5 1.9zM52.7 74.8C69.9 87.7 84 98.5 83.9 98.9c0 .7-62 47.3-63.7 47.9-.9.3-1.2-10.3-1.2-48.3 0-38.6.3-48.5 1.3-47.9.6.5 15.3 11.3 32.4 24.2zm227.8 72c-.5.5-64.4-46.9-64.5-47.9 0-.4 14.5-11.5 32.3-24.8l32.2-24.2.3 48.2c.1 26.5 0 48.4-.3 48.7zM115 121.4c34.8 26.2 35.1 26.2 70.1 0 12.2-9.1 22.6-16.3 23.2-16.1 2.9 1.1 72.2 54 72.5 55.3.5 2.1-1.6 7.9-4 10.9-1.1 1.4-3.7 3.4-5.9 4.5-3.7 2-6.3 2-120.9 2-115.5 0-117.1 0-121-2-4.8-2.5-9.2-8.8-9.4-13.4-.1-3.4.6-3.9 35.9-30.5C75.3 117.2 91.9 105 92.3 105c.5 0 10.7 7.4 22.7 16.4z" fill="#353535"/></svg>