<svg version="1" xmlns="http://www.w3.org/2000/svg" width="400" height="398.667" viewBox="0 0 300 299"><path d="M197.5 14.5c-44 7.8-81 14.5-82.3 14.9-3.2 1.1-8 5.3-10 9-1.6 2.8-1.7 9.9-2 85.7l-.3 82.6-6.3-3.3c-9-4.8-17.3-6.7-29.1-6.7-12.7 0-21.5 2.1-33.1 7.8-15.7 7.8-27.1 20.4-31.5 34.8-3.2 10.3-2.4 22.8 1.9 31.8 3.9 8.1 13.4 17.4 21.9 21.4 34.3 16.3 79.6-.9 92.5-35l2.3-6 .3-79 .3-79 78.7-13.8c43.3-7.6 79-13.8 79.5-13.7.4 0 .7 25.4.7 56.4v56.4l-7.4-3.8c-9.6-4.8-17.8-6.5-29.6-6.3-18.4.3-35.6 7.2-48.8 19.7-12.5 11.9-19 28.8-16.4 42.8 3.3 17.6 15.2 30.6 33.5 36.3 38 12 82-12.2 86.7-47.8 1.4-10.7 1.3-198.5-.1-204.7-2-8.6-9.8-15.1-17.9-14.9-1.9.1-39.5 6.5-83.5 14.4zM281 32.4c0 8.1-.4 13.7-1 14.1-2 1.2-157.5 28.3-158.3 27.6-.4-.4-.6-6.8-.5-14.1l.3-13.4 77-13.7c42.4-7.5 78.2-13.7 79.8-13.8l2.7-.1v13.4zM259.1 189c23.6 7.3 28.6 30.8 10.4 48.5-6.2 6.1-16.7 11.6-25.6 13.5-3.2.7-9.7 1.1-15.1.8-8.2-.3-10.4-.8-16.1-3.6-28.7-14.2-17.5-49.9 18.8-59.7 7.6-2.1 20.2-1.9 27.6.5zM85.5 218.4c15.9 7.2 21.7 21.3 14.6 36.1-5 10.6-14.6 18.4-28.6 23-7.1 2.4-9.1 2.7-18.5 2.3-8.9-.3-11.5-.8-16.7-3.2-11.4-5.2-18-15.2-17.1-25.9 1.2-14.7 15.6-28.9 34.8-34.2 3.7-1 8.8-1.4 15.5-1.2 8.4.3 11.1.8 16 3.1z" fill="#353535"/></svg>