<svg version="1" xmlns="http://www.w3.org/2000/svg" width="400" height="374.667" viewBox="0 0 300 281"><g fill="#353535"><path d="M17.4 2.9C11.2 5.7 5.5 11.3 2.9 17.3L.5 22.5v117c0 98.8.2 117.8 1.4 122 1.1 3.7 2.9 6.4 7 10.6 9.7 9.7-.8 9 143.6 8.7l125-.3 5-2.3c6.5-3 11.2-7.5 14.1-13.7l2.4-5v-94.2c0-63.2-.3-95.1-1-97-1.4-3.7-61.6-64.1-65.7-65.9-2.7-1.2-20.2-1.4-107-1.4-99.4 0-104 .1-107.9 1.9zm198.4 38.6c.3 18.5.6 22.6 2.1 26 2.5 5.6 6.5 10.1 12 13.3 4.6 2.7 4.8 2.7 27.6 3.2l23 .5.3 85.8.2 85.8-2.9 3-2.9 2.9H24.8l-2.9-2.9-2.9-2.9V24.8l2.9-2.9 3-2.9 95.3.2 95.3.3.3 22zm43.6 33.3c-23.4.3-25.1-.1-30.8-7.2l-3.1-3.8-.3-22.1-.3-22.2L252.5 47 280 74.5l-20.6.3z"/><path d="M43.4 48c-5.3 2.1-5.4 3-5.4 36.7v31.2l2.4 2.8 2.4 2.8 35.4.3c31.3.3 35.7.1 38.4-1.3 1.8-.9 3.7-2.8 4.3-4.1.7-1.7 1.1-12.5 1.1-32.5V53.8l-3.4-3.4-3.4-3.4-34.9.1c-19.1 0-35.8.4-36.9.9zM103 84.5V103H56V66h47v18.5zm39.2-26.3c-1.8 1.8-1.4 5.6.7 6.8 1.2.6 11.4 1 26 1 22.7 0 24.2-.1 26.1-2 1.5-1.5 1.7-2.5 1.1-4.2l-.8-2.3-25.9-.3c-19.4-.2-26.3.1-27.2 1zm0 28c-1.8 1.8-1.4 5.6.8 6.8 1.2.7 10.7.9 26.6.8 23.4-.3 24.7-.4 25.9-2.3.9-1.3 1-2.8.4-4.3l-.8-2.2h-25.9c-18.7 0-26.1.3-27 1.2zm0 28c-1.8 1.8-1.4 5.6.7 6.8 1.3.6 21.6 1 59 1 50.4 0 57.1-.2 58.5-1.6 1.9-1.8 2.1-4.5.4-6.2-1.7-1.7-116.9-1.7-118.6 0zm-103 28c-1.8 1.8-1.4 5.6.7 6.8 1.3.7 37.6 1 110.5 1 97.3 0 108.6-.2 110-1.6 1.9-1.8 2.1-4.5.4-6.2-1.7-1.7-219.9-1.7-221.6 0zm0 28c-1.8 1.8-1.4 5.6.7 6.8 1.3.7 37.6 1 110.5 1 97.3 0 108.6-.2 110-1.6 1.9-1.8 2.1-4.5.4-6.2-1.7-1.7-219.9-1.7-221.6 0zm0 28c-1.8 1.8-1.4 5.6.7 6.8 1.3.7 37.6 1 110.5 1 97.3 0 108.6-.2 110-1.6 1.9-1.8 2.1-4.5.4-6.2-1.7-1.7-219.9-1.7-221.6 0zm0 28c-1.8 1.8-1.4 5.6.7 6.8 1.3.7 37.6 1 110.5 1 97.3 0 108.6-.2 110-1.6 1.9-1.8 2.1-4.5.4-6.2-1.7-1.7-219.9-1.7-221.6 0z"/></g></svg>