<svg version="1" xmlns="http://www.w3.org/2000/svg" width="400" height="398.667" viewBox="0 0 300 299"><path d="M38.2 1.9C30.9 4.4 26 8.6 22.5 15.5c-2.9 5.7-3 6.2-3.4 23.3l-.3 17.5-4.9 5c-2.8 2.9-6.6 8.3-8.7 12.6-3.7 7.4-3.7 7.7-3.7 19.6 0 11.4.1 12.3 3.2 18.8 1.9 3.9 5.5 9.2 8.7 12.5l5.5 5.8.3 73.5.3 73.4 2.8 5.7c8.5 17.2 30.6 20.9 44.3 7.3 8.8-8.8 8.4-4.5 8.4-87.1v-72.2l5.4-5.5c10.3-10.6 15.1-25.2 12.8-39.1-1.6-9.4-6.3-18.7-12.8-25.5L75 55.6V39.5c0-19.8-1.1-23.7-8.4-31C58.5.4 48.9-1.8 38.2 1.9zm15.5 19.5c2.8 2.4 2.8 2.5 2.8 14.1v11.7l-9.3.1-9.2.2V35.9c0-11.2.1-11.7 2.6-14.3 3.5-3.5 9.2-3.6 13.1-.2zm6 47.1c16.7 8.2 20.7 31.2 7.6 44.3-11.8 11.7-29.3 11.4-40.7-.8-7.2-7.7-9.2-17.5-5.8-27.6C23 78.2 26.1 74.2 32 70.2c8.3-5.8 18.1-6.4 27.7-1.7zm-3.2 139v67.7l-2.8 2.4c-3.9 3.4-9.6 3.3-13.1-.2l-2.6-2.7V139.5l9.2.1 9.3.2v67.7zM141.2 1.8c-7.1 2.6-11.8 6.6-15.6 13.2l-3.1 5.5-.3 73.8-.3 73.9-5 5c-17.8 18.2-17.6 47.1.6 65.3l4.3 4.4.4 17.8c.3 17.8.3 17.8 3.4 23.3 11.2 19.8 39.2 19.4 49.4-.7 2.3-4.5 2.5-6 2.8-22.5l.4-17.8 5.3-5.5c17.4-17.8 17.4-46.2-.1-64.1l-5.4-5.5-.2-73.7-.3-73.7-2.5-4.8c-6.3-12.4-21-18.4-33.8-13.9zm15.3 19.6c1.3 1.3 2.6 3.9 3 5.7.3 1.9.4 32.4.3 67.8l-.3 64.3-9.3.2-9.2.1V23.9l2.5-2.4c3.3-3.4 9.6-3.5 13-.1zm2.5 157.8c10.7 3.1 19 14.6 19 26.4 0 17.1-15.9 30.6-32.5 27.5-21.9-4-31-30.8-15.8-46.4 8.2-8.5 17.7-10.9 29.3-7.5zm.8 81c.4 10.6-.3 14.4-3.3 17.4-3.4 3.4-9.7 3.3-13-.1-2.4-2.3-2.5-3-2.5-14.2v-11.8l9.2.2 9.3.1.3 8.4zM246 .9c-7.8 2.4-14.2 7.6-17.8 14.5-2.6 4.9-2.7 5.8-3 22.8l-.4 17.8-5.3 5.5c-9.2 9.4-14.5 24.3-13 36.5 1.4 11.3 8.5 25 15.5 30l3 2.1.2 74.2.3 74.2 2.5 4.8c10.3 20.3 38.5 20.6 49.5.6l3-5.4.3-73.8.3-73.9 5-5c17.8-18.2 17.6-47.1-.6-65.3l-4.3-4.4-.4-17.8c-.3-17.6-.3-17.9-3.3-23.2-1.6-2.9-4.5-6.6-6.5-8.2-6.7-5.6-17.7-8.2-25-6zm13.5 20.6c2.4 2.3 2.5 3 2.5 14.2v11.8l-9.2-.2-9.3-.1-.3-7.4c-.7-15.3 1.9-20.8 9.8-20.8 3 0 4.7.6 6.5 2.5zm3.8 45.9c5.9 2.5 11.2 7.2 14.2 12.7 2.6 4.7 3 6.4 3 13.4 0 6.4-.5 8.8-2.2 12-4.6 8.2-10.4 12.8-19.1 15-5.7 1.5-6.7 1.5-12.4 0-12.8-3.2-20.6-12.6-21.6-25.6-.4-6.3-.2-7.5 2.7-13.3 6.7-13.7 22.2-19.9 35.4-14.2zM262 207.3v67.8l-2.5 2.4c-1.7 1.8-3.5 2.5-6.2 2.5-5 0-8-2.2-9.2-6.8-1-3.6-1.6-132.3-.7-133.3.2-.2 4.5-.4 9.5-.4h9.1v67.8z" fill="#353535"/></svg>