<svg version="1" xmlns="http://www.w3.org/2000/svg" width="400" height="398.667" viewBox="0 0 300 299"><path d="M206.5 1.4c-18.3 4.2-21.4 6.8-70 55.7C24.2 170.4 27.4 167 25.3 173c-2.5 6.7-22.8 80.2-24.4 88.3-2.5 12.1 3.4 25.3 14.2 32.3 5.5 3.5 14.4 5.7 20.1 5.1 8.1-1 88.9-22.6 94.5-25.3 4.3-2.1 18.8-16.2 81-78.9 79.8-80.5 80.7-81.5 85.5-95.4 2-5.6 2.3-8.6 2.3-20.1-.1-12.5-.3-14.1-3.2-22.2-9.1-25.9-30.7-46.5-56.5-53.8-9.4-2.7-24.3-3.4-32.3-1.6zm26.9 19.2c30.1 7.8 52.6 41.3 46.2 68.7-2.4 10.1-4.8 14-16 25.5l-10.1 10.4-1.3-8.3c-3.9-25.5-18.2-46.4-40.9-59.8-8.4-4.9-20.2-8.9-28.5-9.7-3.5-.3-6.9-.8-7.7-1-1.9-.6 14.8-17.6 20.9-21.2 10.5-6.2 24.4-8 37.4-4.6zm-48.4 46c.6.6-14.6 16.5-42.8 44.7L98.4 155l-5.7-1.9c-3.1-1.1-8.9-2.4-12.8-3-3.9-.5-7.2-1.1-7.4-1.3-.8-.9 74.5-75.9 78.5-78.1 7.2-4.1 14.4-5.7 24.3-5.4 4.8.2 9.2.8 9.7 1.3zm28.3 14.5c5.7 5.1 13.7 16 13.7 18.6 0 .9-11.4 12.8-25.2 26.5-13.9 13.8-33.9 33.5-44.4 44l-19 18.9-4.1-5.8c-6.1-8.7-16-17.4-27.1-23.9-.2-.1 19.8-20.2 44.5-44.7l44.8-44.6 5.6 3c3.1 1.7 8.2 5.3 11.2 8zm19.2 30.6c.4 1 1 6.1 1.2 11.4.7 11.5-1.1 18.7-6.4 26.8-1.9 3-20 22-40.2 42.3l-36.6 37-.8-7.4c-.5-4-2.1-11.1-3.7-15.8l-2.9-8.5 43.7-43.8c24-24 44-43.7 44.3-43.7.4 0 1 .8 1.4 1.7zM82.2 169.1c2.9.6 9.1 2.9 13.7 5.1 16.1 7.7 30.7 25.8 34.1 42.4.7 3.2 1 9.9.8 14.8-.3 7.6-.9 10.2-3.5 15.6-3.2 6.9-6.1 10.5-9 11.4-4.9 1.5-32.7 8.6-33.8 8.6-.7 0-1.7-2.9-2.4-7.1-3.8-21.1-22-39.2-43.4-43.1-3.7-.7-6.6-1.7-6.3-2.3.2-.5 2.3-8 4.6-16.5s5-17.1 6-19c4.3-8.5 23.1-13.2 39.2-9.9zM44.7 228c9.4 3.3 18.2 10.7 23.6 20.1 3.2 5.6 5.9 14.9 5.5 19l-.3 3.2-18.5 4.9c-10.2 2.6-20.3 4.8-22.5 4.8-7.5 0-13.5-5.9-13.5-13.3 0-2.9 9.4-38.9 10.7-41 .7-1.2 8.6 0 15 2.3z" fill="#353535"/></svg>