<svg version="1" xmlns="http://www.w3.org/2000/svg" width="276" height="400" viewBox="0 0 207 300"><g fill="#353535"><path d="M21.8 1.4C12.3 4 4.5 11.4 2.1 20.2 1.2 23.4 1 56.5 1.2 152c.3 124.5.3 127.6 2.3 131.5 2.5 5 8 10.5 13 13 3.9 1.9 6.5 2 87.5 2h83.5l4.6-2.7c5.4-3.2 9.5-7.7 12-13.3 1.8-3.8 1.9-10.3 1.9-132.5V21.5l-2.4-5c-2.9-6.2-7.6-10.7-14.1-13.7l-5-2.3-79-.2C44.1.2 25.5.4 21.8 1.4zm163.3 20.5c2.9 2.9 2.9 3.1 2.9 14V47H19V37c0-10.5 1.2-14.9 4.7-16.9 1.2-.7 28.8-1 80.1-1.1h78.4l2.9 2.9zm2.9 127.5v93.4l-28.2.6c-15.6.4-53.5.6-84.3.4l-56-.3-.3-92.5c-.1-50.9 0-93.1.3-93.8.3-.9 18.2-1.2 84.5-1.2h84v93.4zm0 114.3c0 11.5-.8 13.7-5.7 16.2-1.5.8-24.3 1.1-78.8 1.1-83.2 0-80.7.2-83.3-5.5-.7-1.4-1.2-7-1.2-12.5v-10h169v10.7z"/><path d="M87.2 29.6c-2.9 2-2.5 5.4.7 7.1 3.3 1.6 27.8 1.6 31.1 0 1.6-.8 2.6-2.3 2.8-4 .5-3.9-2.6-4.7-18.6-4.7-11 0-14.2.3-16 1.6zm8.4 234.6c-2 2.8-2 3.3 0 5.2 1.1 1.2 3.5 1.6 8.5 1.6 6.4 0 7-.2 8.1-2.5.9-2.1.8-2.8-.7-4.5-1.4-1.6-3.1-2-8.1-2-5.4 0-6.5.3-7.8 2.2z"/></g></svg>