<svg version="1" xmlns="http://www.w3.org/2000/svg" width="400" height="426.667" viewBox="0 0 300 320"><g fill="#353535"><path d="M31.5 1.4C19.6 4.3 9.4 12.7 4.2 23.7l-2.7 5.8v261l2.8 5.8c4 8 11.2 15.1 19.4 19l6.8 3.2 117.5.3c115 .2 117.6.2 124-1.8 11.3-3.4 20.5-12.1 25.2-23.7l2.3-5.8V160c0-142 .5-131.1-6.9-142.4-4.2-6.3-11.2-11.8-18.9-15L268.5.5l-116-.2C63.6.2 35.3.4 31.5 1.4zm234.8 19.7c5.1 1.4 11.1 7.7 12.6 13.1.9 3.2 1.1 35.7.9 127.8-.3 121.4-.3 123.6-2.3 126.9-1.1 1.9-3.7 4.8-5.8 6.5l-3.9 3.1-116.4.3C36.6 299 34.9 299 31 297c-4.7-2.4-8.4-7.1-9.9-12.5-1.5-5.5-1.5-244.4 0-249.8 1.3-4.9 6.3-10.5 11.4-12.8 3.8-1.8 9.9-1.9 117-1.9 76.5 0 114.2.4 116.8 1.1z"/><path d="M46 41.3c-1.4.7-3.3 2.8-4.2 4.7-1.7 3.3-1.8 9.8-1.8 92.6 0 49 .3 90.5.6 92.3.4 1.7 1.8 4.2 3.2 5.6l2.5 2.5h103.6c113.2 0 106.5.4 109-5.7.8-2.1 1.1-27.1.9-95l-.3-92.3-2.8-2.7-2.7-2.8-102.8-.2c-80.9-.2-103.2 0-105.2 1zm204 77.9v69.3l-2.9-3c-1.5-1.7-9-9.8-16.6-18-14.5-15.8-16.5-17.4-20.5-17.4-4.2 0-6.3 1.8-19.6 16.9-7 8-13.3 14.5-13.9 14.5-.6 0-11.4-11.7-24-26-47.9-54.3-55.8-63-58.2-64.3-1.5-.9-3.8-1.1-5.8-.8-3.7.7-5.8 2.8-25 25.4-6.6 7.7-12.3 14.1-12.7 14.1-.5.1-.8-17.9-.8-39.9V50h200v69.2zm-114.9 31.3c54.3 61.6 67.9 77.3 67.9 78.5 0 .7-27 .9-76.2.8l-76.3-.3-.2-42-.2-42 20.1-22.9c19.3-22 20.1-22.7 21.8-21 1 1.1 20.4 23 43.1 48.9zm81.1 15.7c3 3.5 11.9 13.3 19.7 21.7l14.2 15.5-.3 13-.3 13.1-16 .3c-15.9.3-16 .3-18-2.2-1.1-1.3-8.9-10.3-17.2-19.9L183 190.1l13.2-15c7.3-8.3 13.5-15.1 13.9-15.1.3 0 3 2.8 6.1 6.2z"/><path d="M180.3 71.8c-7.3 2.6-13.3 7.9-16.8 14.8-2.5 5-3 7-2.9 13.4 0 6.1.5 8.4 2.6 12.5 7.7 14.8 24.4 21 38.8 14.4 6.7-3.1 11.2-7.5 14.7-14.3 2.2-4.2 2.7-6.4 2.7-12.6-.1-9.1-2.4-15-8.4-21-8-8-20.4-10.9-30.7-7.2zm17.5 9.7c14.6 6.1 16.4 25.7 3.3 35-3.6 2.5-5.2 3-10.4 3-7.8 0-13.1-2.6-17.2-8.4-2.6-3.7-3-5.1-3-11.1s.4-7.4 3-11.2c5.4-7.8 15.6-10.9 24.3-7.3z"/></g></svg>