<svg version="1" xmlns="http://www.w3.org/2000/svg" width="400" height="398.667" viewBox="0 0 300 299"><g fill="#353535"><path d="M56.9 1.5c-6.2 2-13.6 8.7-16.5 15l-2.4 5v134.9L20.6 174C4.2 190.5 3.1 191.9 1.5 197.4c-2.1 7-1.5 13.8 1.5 20.1 2.9 6 72.1 75 78.7 78.5 3.8 2 6.2 2.5 11.8 2.5 11.1-.1 14.2-2 33.4-21l16.7-16.5h67.5c63.1 0 67.7-.2 71.4-1.9 5.6-2.5 10.1-6.6 13.3-12 2.4-4.1 2.7-5.6 2.7-13.6s-.3-9.5-2.7-13.5c-1.5-2.6-46.4-48.2-108.1-109.8C102 24.7 81.4 4.6 77.5 2.9 71.4.2 62.8-.4 56.9 1.5zm116.9 121.1c57.4 57 105 105 105.8 106.6 3.2 6.3-1.2 13.8-8 13.8-2.8 0-13.8-10.7-109.4-106.3C74.3 48.8 56 30 56 27.8c0-1.4 1.2-4 2.6-5.7 2.1-2.6 3.3-3.1 6.8-3.1h4.2l104.2 103.6zM156.5 144l99 99-58.5.2-58.5.3L97 202.3 55.5 161l.3-58c.1-31.9.6-58 1-58s45.2 44.5 99.7 99zm-66.3 64.7c21.4 21.4 38.8 39.3 38.8 39.9 0 .6-7 7.9-15.6 16.2-15 14.6-15.8 15.2-19.8 15.2s-4.5-.4-39.3-35.2C19.9 210.4 19 209.4 19 205.6c0-3.8.8-4.7 15.7-19.8 8.6-8.7 16-15.8 16.3-15.8.2 0 17.9 17.4 39.2 38.7zM163.9 1.4c-5.4 3.1-6 10.3-1.3 14.7 2.1 1.9 3.9 2.4 13.2 3 23.1 1.5 42.2 8.7 61.1 22.9 25.9 19.6 41.6 49.2 43.8 83 .6 8.6.9 9.7 3.4 12.2 3.9 4 10.1 3.5 13.6-1.1 1.7-2.2 1.6-15.7-.2-26.9C293.2 82.5 281 59 261 38.9 237.7 15.4 208.9 2.5 175.7.5c-7.1-.4-9.8-.2-11.8.9z"/><path d="M165.3 39.1c-3.8 3.9.6 7.9 8.7 7.9 3 0 9.2.9 13.8 2 26.9 6.4 48.8 25.4 59.1 51.1 3.1 7.6 6.1 22 6.1 28.8 0 4.2 1.4 6.1 4.6 6.1 3.9 0 4.7-2.3 4.1-11-2.1-26.5-15.7-51.5-37.1-67.6-7.4-5.6-21.5-12.7-31.1-15.5-8.8-2.6-26.4-3.7-28.2-1.8z"/></g></svg>