<svg version="1" xmlns="http://www.w3.org/2000/svg" width="400" height="349.333" viewBox="0 0 300 262"><g fill="#353535"><path d="M50.5 1.2c-5 1.8-8 4.5-10.3 9C39 12.6 29.4 46.6 19 85.9L0 157.4v35.1c0 38.8.4 42.3 6.1 51.5 3.9 6.4 11.1 12.2 18.5 14.9 5.5 2.1 6 2.1 126.7 1.9l121.2-.3 4.8-2.2c7.1-3.4 15-11.3 18.3-18.6l2.9-6.2.3-38.7.3-38.7-6.5-24.3c-3.5-13.4-11.9-44.8-18.5-69.8-6.7-25-12.8-47.4-13.7-49.7-1.8-5.1-7-9.8-12.1-11.2C243-.4 54.7-.3 50.5 1.2zm211.8 88.6l18.8 70.7-.1 33.5c0 30.3-.2 33.9-1.9 37.5-2.2 4.9-6.9 9.1-11.9 10.5-2.6.8-39.3 1-119.8.8l-116-.3-4.2-2.8c-2.3-1.5-5.1-4.5-6.2-6.7-1.9-3.7-2-5.8-2-39.6v-35.8l17.1-64c9.4-35.3 17.7-66.5 18.5-69.4l1.5-5.2h187.4l18.8 70.8z"/><path d="M71.2 40.3c-1.4 1.5-4 8.3-7.1 19.3C45.4 124 36 157.5 36 159.7c0 1.4 1.3 3.7 2.9 5.4l2.9 2.9H88l7.4 14.8c7.5 14.9 11.8 20.5 16.9 21.7 1.2.3 18.9.5 39.3.3l37.1-.3 3.7-2.8c2.9-2.2 5.4-6.3 11.4-18.3l7.7-15.4h22.3c24.7 0 27.1-.5 29.1-6 .9-2.7-.7-9.1-13.4-53.3-7.9-27.6-15.5-54-16.9-58.7-1.6-5.3-3.3-9.2-4.7-10.3-2-1.6-7.2-1.7-78.3-1.7H73.3l-2.1 2.3zM235.7 97c7.3 27.2 13.2 50.3 13.3 51.2 0 1.7-1.7 1.8-21 1.8-18.7 0-21.5.2-24.8 1.9-5.3 2.7-6.2 4-14.3 20.3l-7.4 14.8H118l-7.4-14.7c-7.5-14.9-10.7-19.3-15.9-21.2-1.7-.7-11.4-1.1-23.8-1.1-11.5 0-20.9-.2-20.9-.5s5.6-21.8 12.6-47.8c6.9-26 13-48.9 13.5-51l1-3.7 72.6.2 72.7.3L235.7 97z"/></g></svg>