<svg version="1" xmlns="http://www.w3.org/2000/svg" width="400" height="386.667" viewBox="0 0 300 290"><path d="M144.9 1.4c-5.6 1.5-10.2 4.7-12.7 8.9-1.1 1.7-9.3 18.5-18.2 37.2-9 18.7-16.6 34.3-16.9 34.7-.3.3-17.7 3.2-38.6 6.2-20.9 3.1-39.9 6.1-42.1 6.7-11.8 3.1-18.5 16.5-13.9 27.7 1.1 2.5 11.5 13.7 31.5 33.7l30 30-6.9 41.2c-7.5 44.5-7.6 46-2.8 53 4.8 7.1 15 10.7 23 8.3 2.3-.7 19.1-9.3 37.4-19.1 18.3-9.9 33.8-18.2 34.6-18.5.7-.2 17.3 8.1 36.7 18.5 37.4 20.1 40.5 21.3 48.4 19.1 8.4-2.3 15.5-10.8 15.6-18.5 0-1.7-3-21.1-6.7-43.3l-6.6-40.3 29.5-29.7c16.3-16.3 30.4-31.3 31.4-33.2 2.8-5.5 2.5-13.5-.9-19.2-5.1-8.7-6.3-9.1-51.3-15.8-21.9-3.3-40.2-6-40.7-6-.8 0-13-24.6-30.1-60.5-4.5-9.4-7.3-13.9-10-16.3-6-5.3-12.3-6.8-19.7-4.8zm23.9 58.1c16.4 34.2 19.3 38.9 25.6 41.9 1.7.8 20.2 4 41.1 7.1 20.9 3 39.1 5.8 40.4 6.1 2.2.5-.8 3.7-28.1 31.2-27.6 27.7-30.6 31.2-31.8 35.4-1.1 4.3-.7 7.8 5.8 46 3.8 22.7 6.8 41.4 6.7 41.5-.1.2-15.6-8.1-34.6-18.3-18.9-10.2-36.2-19-38.4-19.6-7.7-2.1-11.2-.7-48 19.2-19.2 10.4-35.1 18.7-35.3 18.6-.1-.2 2.7-17.9 6.3-39.4 3.6-21.5 6.5-40.9 6.5-43.2 0-7.9-2-10.4-32.7-41.2-26.7-26.7-29.4-29.7-27.2-30.2 1.3-.4 14.6-2.4 29.4-4.6 45.6-6.6 47.7-7 51.9-8.9 2.3-1 5.1-2.9 6.3-4.2 1.2-1.4 9.1-16.8 17.6-34.4 21.1-43.9 19.7-41.3 21-38.9.6 1 8.5 17.2 17.5 35.9z" fill="#353535"/></svg>