<svg version="1" xmlns="http://www.w3.org/2000/svg" width="400" height="349.333" viewBox="0 0 300 262"><path d="M63.5.5c-.5.2-2.2.6-3.7.9C56.9 2.1 7.3 41 4 45.3c-1.1 1.3-2.5 4.5-3.2 7.1-1.2 4.7-1.2 5 9.5 37 9.6 28.9 11.1 32.7 14.3 35.9 5.3 5.3 13.6 6.9 21 4 1.2-.4 1.4 7.7 1.4 58.3 0 55 .2 59.2 1.9 62.9 2 4.6 6.9 9.1 10.9 10.3 1.5.4 42.3.7 90.7.7h88l4.3-2.5c2.4-1.3 5.3-4 6.5-6 2.2-3.5 2.2-3.8 2.7-63.5.5-59.3.5-60 2.5-59.6 1.1.2 4.5.4 7.5.4 6.5.1 10.9-1.9 14.3-6.5 1.4-1.9 6.8-16.4 12.7-34.1 11.1-33.3 11.7-36.7 7.5-43.1-2.1-3.2-49.1-41.2-54.6-44.2C238.7.6 234.2.5 151.5.3c-47.8-.1-87.4 0-88 .2zm43.9 24c4.7 9.1 13.4 15.6 26.6 20.1 8.1 2.7 24.3 2.5 33-.5 11.6-4 21.3-11.8 25.9-21L195 19h39.2l23.3 18.6 23.3 18.6-9 27.1c-5 15-9.4 27.6-9.8 28-.3.4-6.7-3.2-14.1-8.1l-13.4-8.9-.3 74.3-.2 74.4H65V94l-13.6 9.1c-7.5 5-13.8 8.9-14 8.6-.6-.5-18.4-53.8-18.4-54.9 0-.4 10.4-9.1 23.1-19.3L65.2 19h39.3l2.9 5.5zM184 21c-3.8 7-16.1 14.3-27.4 16.2-13.5 2.2-29.6-2.9-37.5-11.9-2.3-2.5-4.1-5-4.1-5.4 0-.5 15.8-.9 35-.9 34.6 0 35.1 0 34 2z" fill="#353535"/></svg>