<svg version="1" xmlns="http://www.w3.org/2000/svg" width="400" height="301.333" viewBox="0 0 300 226"><g fill="#353535"><path d="M26.1 2.5C16.1 5.6 6.6 15 2.3 26 .6 30.2.5 36.3.5 112.5c0 76.3.1 82.4 1.8 87.1 2.7 7.7 7.3 14 13.5 18.5 10.3 7.3 4.6 7 112.8 6.7l96.9-.3 5.6-2.7c3-1.5 7.5-4.8 10-7.2 4.1-4.1 45.4-68.9 53.9-84.6 3.4-6.3 3.5-6.9 3.5-17 0-9.6-.2-11-2.9-15.9-6.9-13.2-51.1-82.5-55-86.2-2.2-2.2-6.6-5.2-9.6-6.7l-5.5-2.7-97.5-.2c-80.6-.2-98.3.1-101.9 1.2zm196.4 18.4c2.2 1 5.2 3.1 6.6 4.7 3.1 3.5 48.5 76.3 50.5 81 1.8 4.3 1.8 8.6 0 12.9-2 4.8-47.3 77.4-50.5 80.9-1.4 1.6-4.4 3.7-6.6 4.7-3.8 1.8-8.6 1.9-96 1.9s-92.2-.1-96-1.9c-4.7-2.2-8.9-6.4-10.4-10.4-1.5-3.9-1.5-159.5 0-163.4 1.5-4 5.7-8.2 10.4-10.4 3.8-1.8 8.6-1.9 96-1.9s92.2.1 96 1.9z"/><path d="M206.9 86.4c-12.3 4.4-19.1 13.9-19.1 26.6-.1 14.8 10.4 26.4 25.1 27.7 10.8 1 22.2-5.3 27.4-15.1 3.1-5.9 3.1-19.3 0-25.2-6.3-11.8-21.7-18.2-33.4-14zm15.6 9.5c13 6 15.6 21.6 5.2 30.8-7.1 6.2-16 6.7-23.4 1.4-5-3.6-7.3-8.4-7.3-15.1 0-6.4 2.2-11.3 6.6-14.6 6-4.6 12.5-5.5 18.9-2.5z"/></g></svg>