<svg version="1" xmlns="http://www.w3.org/2000/svg" width="400" height="457.333" viewBox="0 0 300 343"><g fill="#353535"><path d="M86 2.6c-6.2 2.2-11.7 6.4-15.7 12-4.2 6-5.3 10-5.3 19.5 0 4.9-.4 8-1.3 8.7-.7.6-9.3 1.2-21.2 1.4-20 .3-20 .3-25.3 3.2C10.7 51 6.5 55.6 3.1 63 .6 68.2.5 69.3.5 85.5c0 15.7.2 17.3 2.2 21.2 2.9 5.3 8.1 9.3 14.1 10.8l4.7 1.2.5 95.9c.5 104.8.2 98.4 6.3 108 3.2 5.2 11.4 12.7 16.7 15.4 9.5 4.9 11.5 5 104.6 5 58.8 0 89-.4 93-1.1 16.4-3 29.7-15.2 34-31.3 1.1-4.1 1.4-22.6 1.4-98.9V118h2.3c3.4-.1 10.4-3.6 13.3-6.7 4.7-5.1 5.4-8.3 5.4-25.3 0-20.4-1.1-24.2-9.5-32.6-8.5-8.6-11.3-9.3-35-9.7l-19-.2-.6-10c-.4-8.1-1-11-3.1-15-3.1-6-8.6-11.4-14.8-14.6l-4.5-2.4-61-.2c-53.4-.2-61.6 0-65.5 1.3zm124.6 22.8c3.4 3.4 3.5 3.6 3.2 10.8l-.3 7.3-63.7.2L86 44v-7.8c0-8.1 1.1-10.6 5.5-13 1.4-.8 19.4-1.1 58.8-1.2h56.9l3.4 3.4zm64.3 42.7l3.1 3.1V97l-128.2-.2-128.3-.3-.3-10c-.4-11.5.8-16.6 4.5-19.4 2.6-2.1 3-2.1 124.4-2.1h121.7l3.1 3.1zM257 210.4c0 101 .2 97.6-5.8 103.9-1.5 1.6-4.5 3.9-6.7 5l-4 2.2H59.4l-4.9-2.6c-3.5-1.8-5.9-3.9-8-7.4l-3-4.8-.3-94.4L43 118h214v92.4z"/><path d="M67.9 142.9l-2.9 2.9v26.4c-.1 95 .1 121.1 1 122.9 2.3 4.2 6.3 5.1 21.1 4.7 13.6-.3 13.9-.3 16.6-3.1l2.8-2.7.3-73.6.2-73.6-3.4-3.4-3.4-3.4H70.8l-2.9 2.9zM96 220v70.1l-10.2-.3-10.3-.3-.3-69.8L75 150h21v70zm35.9-77.1l-2.9 2.9v73.9c.1 56.5.3 74.2 1.3 75.3 3.5 4.5 5.7 5 20 5h13.9l3.4-3.4 3.4-3.4v-72.6c0-78.9.1-76.8-5.5-79.4-1.6-.8-7.9-1.2-16.6-1.2h-14.1l-2.9 2.9zm28.6 77.1v69.5h-21l-.3-69.8-.2-69.8 10.7.3 10.8.3V220zm37.6-78.6c-5.2 2.9-5 .9-5.1 79v72.8l3.4 3.4 3.4 3.4h28.4l3.4-3.4 3.4-3.4v-73.3c0-68-.2-73.6-1.8-75.5-.9-1.2-2.7-2.7-3.9-3.3-3.2-1.6-28.1-1.4-31.2.3zm26.4 78.6v69.5h-21l-.3-68.5c-.1-37.7 0-69.1.3-69.8.3-.9 3.1-1.2 10.7-1l10.3.3V220z"/></g></svg>