<svg version="1" xmlns="http://www.w3.org/2000/svg" width="400" height="325.333" viewBox="0 0 300 244"><g fill="#353535"><path d="M18.4 2.6c-6 2.2-11.9 7.7-15.1 14.2L.5 22.5V80c0 56.4 0 57.6 2.1 62.1 4.2 9.1 11.9 15.1 21.6 16.7l4.3.8.5 18.4c.5 17.9.6 18.6 3.2 23.2 5.6 9.4 14.1 13.8 27 13.8 6.6 0 8 .3 8.5 1.7 3.3 10.1 10.9 18.8 20.1 23.1 5 2.4 6.9 2.7 15.7 2.7 9.1 0 10.5-.3 15.8-3 7.5-3.7 15.8-12.6 18.3-19.4l1.8-5.1h24.8c17.4 0 24.8.3 24.8 1.1 0 2.5 5.4 11.7 9.3 15.7 2.3 2.4 6.9 5.8 10.2 7.5 5.6 3 6.7 3.2 16 3.2s10.5-.2 16.7-3.3c8-3.9 14.6-10.8 17.8-18.7l2.2-5.5h7.7c13.8 0 22.5-5 27.8-15.8l2.8-5.7v-68l-2.7-5.5c-1.4-3-11.5-18.8-22.5-35-26.2-39.1-24.6-38-58.2-38h-18.9l-.4-12.3c-.3-10-.8-13.1-2.6-17.2-2.8-6-6.2-9.8-12.2-13.3l-4.5-2.7-77.5-.2c-66-.1-78.1.1-81.6 1.3zM173 20.5c1.6.8 3.4 2.4 4 3.4 1.4 2.7 1.4 109.5 0 112.2-2.7 5-1.7 4.9-78.5 4.9-77.7 0-75.7.1-78.3-5.5-1.8-4-1.6-108.1.2-111.4 2.9-5.2.9-5 77.9-5.1 62.1 0 72.2.2 74.7 1.5zm65.8 46.8c1.2.7 11.3 14.8 22.2 31.3l20 29.9v30.2c0 16.8-.4 31.3-1 32.7-1.3 3.6-5.9 5.6-13 5.6-4.9 0-6.2-.3-6.7-1.8-3.3-10-10.9-18.7-20.1-23-4.9-2.3-7-2.7-15.2-2.7-8.8 0-10.1.3-16.2 3.3-8 3.9-14.6 10.9-17.9 18.7l-2.3 5.5h-24.8c-16.8 0-24.8-.3-24.8-1.1 0-.5-1.2-3.5-2.7-6.5-3.3-6.8-10.6-13.7-18.1-17.2-4.9-2.3-7-2.7-15.2-2.7-8.5 0-10.1.3-15.5 2.9-8.9 4.4-16 12.3-19.4 21.8-1 2.6-1.4 2.8-7.1 2.8-7 0-11.1-1.7-12.8-5.5-.8-1.6-1.2-8.1-1.2-17.5v-14.9l65.3-.3 65.2-.3 4.5-2.7c6-3.5 9.4-7.2 12.2-13.3 2.2-4.9 2.3-5.9 2.6-40.8l.3-35.7h19.7c14 .1 20.4.4 22 1.3zM108.2 188c7.4 2.1 13.7 10.2 13.8 17.6.1 11.2-10.6 20.7-21.2 19-19.7-3.1-21.7-31-2.8-36.4 4.7-1.4 5.9-1.4 10.2-.2zm125.5 1.7c10.7 5 13 20.3 4.4 29.3-5.4 5.7-12.9 7.3-19.9 4.5-4.9-2.1-8.1-5.2-10.3-10-2.4-5.1-2.4-9.9 0-15 4.7-10.1 15.4-13.8 25.8-8.8z"/><path d="M212.4 76c-1.2.4-3.1 2.1-4.3 3.6-2 2.6-2.1 3.5-2.1 32.6 0 32.4.3 34.2 5.5 36.6 1.7.8 9.4 1.2 23.6 1.2h21.1l2.9-2.9c2.8-2.9 2.9-3.2 2.9-13.3v-10.3l-15.2-22.9c-12.2-18.3-15.9-23.2-18.5-24.3-3.6-1.4-12.6-1.7-15.9-.3zm26.9 29.8l13.7 20.7V141l-18.7-.2-18.8-.3-.3-27.8L215 85h5.2l5.3.1 13.8 20.7z"/></g></svg>