<svg version="1" xmlns="http://www.w3.org/2000/svg" width="400" height="312" viewBox="0 0 300 234"><g fill="#353535"><path d="M97 2C78.1 3.1 48.7 5.6 34 7.4 16.1 9.6 13.6 12.3 9.1 33.6c-11 52.1-11 105.8 0 157.9 3.4 16 5.5 20.2 12.1 23.3 4.5 2.1 19.4 4 49.4 6.3 13.2 1.1 15.1 1.4 14.7 2.9-2.8 10.5 100.9 13.3 125.8 3.4 3-1.2 3.9-2.1 3.6-3.4-.4-1.5.7-1.8 8.7-2.4 5-.3 18.6-1.6 30.1-2.7 30.6-3 32.5-4.3 36.9-24.9 11.3-52.8 11.5-105.2.6-159.9-4.9-24.1-6-24.9-38-28-11.8-1.2-27.3-2.6-34.5-3.2C201.4 1.5 116.8.9 97 2zm120.8 19.5c11.7.8 27.6 2.2 35.3 3 7.8.8 14.8 1.5 15.5 1.5.8 0 1.8 1 2.3 2.2 1.4 3.9 6.1 30.5 7.8 44.8 2 16.9 2.3 58.7.5 75-2.2 19.1-7.4 48.7-9 50.2-.9.8-35.5 4.3-60.2 6-23.9 1.6-96.1 1.6-120 0-24.9-1.7-59.3-5.2-60.2-6-1.1-1.1-5.5-22.9-7.2-36.2-4.7-34.7-4.7-64.3 0-99 1.7-13.3 6.1-35.1 7.2-36.1 1.4-1.4 45-5.2 84.2-7.3 15.2-.8 84.1.4 103.8 1.9z"/><path d="M98 37.5c-16.3 1.6-43 5.9-45.9 7.4-2.4 1.4-4.5 5.9-7 15.6-5.9 22.4-8.3 48-6.2 67.8 2.2 21.8 8.5 46.6 12.4 49.1 2.7 1.8 19.5 5 38.2 7.3 19.9 2.5 64.7 2.4 84-.1 24-3.1 35.7-5.5 38.3-7.8 2.6-2.5 5.2-10.5 8.9-27.8 2.5-11.6 2.7-14.2 2.8-37 0-26.6-1.3-36.6-7.1-55.4-3.6-11.3-4.6-12.1-18.4-14.5-30.6-5.5-71.7-7.3-100-4.6zm70.5 9.5c20.2 2.2 36.6 5.3 37.5 7 1.6 2.9 5.9 21.4 7.5 31.8 1.9 13 1.9 38.7 0 51.4-1.5 10-6 28.9-7.5 31.8-.6 1.2-4.6 2.2-14.7 3.9-38.7 6.2-75.9 6.6-112.8 1.1-19.3-2.9-20.4-3.1-21.5-4.5-3.7-4.4-10-41.2-10-58 0-17.5 6.5-54.6 10.2-58.1 2.1-1.9 32.9-6.5 52.3-7.8 10-.6 49.4.3 59 1.4z"/><path d="M99.6 75.5c-18.4 1.6-19.1 1.8-20.4 5.2-1.4 3.6-3.7 27.5-2.9 29.7.9 2.2 6.4 2.1 7.5-.2.5-.9 1.3-6.1 1.7-11.6.5-7.3 1.1-10.2 2.4-11.5 1.9-1.9 6.4-2.5 27.6-3.7 11.5-.7 15.5-2 15.5-5.2 0-4.6-4.4-5-31.4-2.7zm144.9-27.8c-11.8 3.1-13.8 18.9-3.2 25.3 11 6.8 24.7-5.7 19.2-17.4-2.8-6-10-9.5-16-7.9zM251 58c1.1 1.1 2 2.5 2 3.2 0 1.7-3.1 4.8-4.8 4.8-2 0-5.2-2.9-5.2-4.7 0-1.5 3.5-5.3 5-5.3.6 0 1.9.9 3 2zm-15.8 56.2c-1.7 1.7-1.5 4.2.6 6.1 1.6 1.4 4.3 1.7 16.6 1.7 8.2 0 15.6-.5 16.7-1 2.1-1.2 2.5-5 .7-6.8-1.7-1.7-32.9-1.7-34.6 0zm0 28c-1.7 1.7-1.5 4.2.6 6.1 2.7 2.4 31.2 2.5 33.6.1 1.9-1.8 2.1-4.5.4-6.2-1.7-1.7-32.9-1.7-34.6 0zm-9 28c-1.8 1.8-1.4 5.6.7 6.8 1.1.5 8.5 1 16.9 1 13.2 0 15.1-.2 16.5-1.8 2-2.2 2.2-4.3.5-6-1.7-1.7-32.9-1.7-34.6 0z"/></g></svg>