<svg version="1" xmlns="http://www.w3.org/2000/svg" width="400" height="400" viewBox="0 0 300 300"><path d="M131.9 2.5c-15.7 3.1-29.4 10.7-41.4 22.9-17.4 17.8-27.5 41-32.1 73.3-2 14.3-1.4 42.8 1.1 53.8 4.8 21.3 16.8 49.6 28.4 67.3 3.4 5.1 6.2 9.8 6.4 10.3.1.6-4.9 2.4-11.2 4-22.8 6-51.2 17.7-69.2 28.5C4.3 268.4 1 273.1 1 280.7c0 9.4 4.7 15.8 13.5 18.2 6 1.7 266.3 1.5 271.9-.1 11.5-3.5 16.4-16.9 10-27.7-5.5-9.4-47.3-28.7-81.4-37.5-5.2-1.4-9.4-2.8-9.3-3.3.1-.4 2.7-4.6 5.9-9.3 10.9-16.2 21.7-40.9 27.6-63 2.7-10.3 3.1-13.5 3.6-29.9 1-37.1-6.6-67-23-90.8-16.6-24-40.9-36.5-70.6-36.2-5.9 0-13.7.7-17.3 1.4zM168 21.6c30.9 9.1 52 41.7 56.1 86.3 2.5 27.2-2.8 55.1-15.6 81.6-11.1 23-26.6 41.9-39.5 48.2-12.7 6.2-25.1 6.2-37.8 0-20.8-10-44.3-48.1-52.3-84.7-9.8-45 2.2-94.2 28.9-118 8.5-7.6 21.3-13.6 32.7-15.4 5.6-.8 22 .3 27.5 2zM128 247c15.4 7.8 29.2 7.8 44.1 0l5.7-2.9 15.8 3.5c20.2 4.4 34 8.4 48.4 14.1 11.4 4.5 32.6 14.8 36.5 17.7 1.8 1.4-11.7 1.5-128.2 1.6-71.7 0-130.3-.2-130.3-.4 0-.9 17.3-9.9 28.1-14.7 18.2-8 34.7-13.1 64.9-19.8 4.7-1.1 8.6-2 8.8-2 .1-.1 2.9 1.3 6.2 2.9z" fill="#353535"/></svg>