<svg version="1" xmlns="http://www.w3.org/2000/svg" width="400" height="274.667" viewBox="0 0 300 206"><path d="M20.2 1.7c-6.7 2-13.8 8.2-16.8 14.8l-2.4 5v163l2.4 5c3.3 7.2 10.1 12.9 17.9 14.9 5.6 1.5 15.2 1.7 98.7 1.4l92.5-.3 5.7-2.8c10.9-5.3 15.8-14 15.8-27.9 0-4.3.3-7.8.7-7.8.4 0 7 6.3 14.8 13.9 15.2 15.1 16.9 16.1 27.4 16.1 12 0 20-5.5 22.1-15.2.8-3.8 1-26.6.8-81.8l-.3-76.5-2.7-4.5c-4-6.9-8.5-9-19.7-9-7.1 0-10 .4-12.9 1.9-2 1.1-9.3 7.6-16.2 14.5-6.9 6.9-12.8 12.6-13.2 12.6-.5 0-.8-3.5-.8-7.8 0-13.9-4.9-22.6-15.8-27.9L212.5.5 119 .3C36.9.2 24.9.3 20.2 1.7zM211.1 20c5 2.7 4.9 1.4 4.9 83s.1 80.3-4.9 83c-1.3.7-32.8 1-94.1 1H24.8l-2.9-2.9-2.9-2.9V24.8l2.9-2.9 2.9-2.9H117c61.3 0 92.8.3 94.1 1zm69.9 83v75h-9.5l-23.2-23.2-23.3-23.3v-57l23.2-23.2L271.5 28h9.5v75z" fill="#353535"/></svg>