<svg version="1" xmlns="http://www.w3.org/2000/svg" width="400" height="400" viewBox="0 0 300 300"><g fill="#353535"><path d="M136.9 1c-17.8 1.6-36 6.7-52.4 14.5-29.1 14-56 41-69.5 69.7C4.6 107.4.6 125.6.6 150.5c.1 24.1 4 41.7 14.1 63.4 13.6 29.4 40.3 56.3 69.8 70.6 42.8 20.6 92.6 19.8 134.5-2.2 23.9-12.5 41.5-28.6 56.4-51.6 9.8-14.9 17.3-33.5 21.3-52.7 2.5-12 2.5-44 0-56C282.5 54.5 229.3 6.8 161.5 1c-6.6-.5-12.9-.9-14-.9-1.1.1-5.9.5-10.6.9zM175 21.4c26.8 5.8 47.5 16.9 66.6 36 26.2 26.2 38.8 56.3 38.7 93.1 0 27.4-7 50.3-22.6 73.5-6.3 9.5-25 28.1-34.3 34.2-53.3 35.1-121.2 28.9-165.5-15.2-20.3-20.2-32.7-44.2-37.4-72.9-2.3-13.5-1.6-36.6 1.4-48.7 6.5-26.2 17.3-45.7 35.6-63.9 14-14 30.1-24.3 48.1-30.8 6.7-2.4 22.8-6.1 30.4-7.1 7.1-.9 31.7.3 39 1.8z"/><path d="M98.5 50.3c-10.7 5.8-17.8 11-26.7 19.5-9.9 9.6-17.1 19.4-22.9 31.5-3.3 6.9-3.9 8.9-3 10.5 1.3 2.4 3.5 3.4 5.7 2.5.9-.3 2.9-3.5 4.5-7C65 87.4 81.7 69.8 101.9 59c9.3-4.9 11.2-7 9.5-9.8-1.8-2.8-6.4-2.5-12.9 1.1zm8 17C89 76.7 75.3 90.5 66.9 107.1c-4.5 9.1-4.9 12.6-1.6 13.8 3.4 1.3 5-.1 9-8.1 8.5-17.3 21.6-30 41.2-39.9 3.3-1.6 4.4-5.1 2.5-7.5-1.9-2.2-4.9-1.7-11.5 1.9zm7.1 17.4c-12.9 6.9-28.4 24.2-32.7 36.5-1 3-1 4 0 5.2 2.3 2.7 6 2 7.9-1.5 8.9-16.3 17-25.2 29-31.9 9.8-5.6 10.9-7.1 7.6-10.4-2.3-2.3-4.1-2-11.8 2.1zm23.1 10.8c-10.2 2.6-18.6 7.4-26.3 15-11.1 11.1-16.4 24-16.4 40.2 0 31.7 27.1 57 59 55 14.7-.9 26.9-6.6 37.2-17.5 10.8-11.3 15.1-22.2 15.1-38.2 0-16-4.3-26.9-15.1-38.2-10.8-11.3-22.7-16.7-38.2-17.4-6.3-.2-11.5.1-15.3 1.1zm29.6 21c7.1 3.5 14 10.7 17.5 18.3 2.3 4.9 2.7 7 2.7 15.2s-.4 10.3-2.7 15.2c-3.5 7.6-10.4 14.8-17.5 18.4-5.3 2.6-6.7 2.9-16.3 2.9-9.3 0-11.2-.3-16.2-2.7-7.6-3.5-14.2-10.4-18.1-18.6-2.7-5.9-3.1-7.8-3.1-15.2 0-7.1.4-9.5 2.6-14.2 4.9-10.7 10.5-16.2 20.7-20.5 4.8-2 6.9-2.3 15.1-2 8 .3 10.4.8 15.3 3.2z"/><path d="M147.5 131.5c-.5.2-2.2.6-3.7.9-6.2 1.4-12.7 10.2-12.8 17.4 0 4 2.4 9.9 5.3 13 8 8.6 23.3 6.9 29.3-3.4 5-8.6 2.1-20.5-6.3-25-3.7-2.1-9.8-3.6-11.8-2.9zm7.6 10.8c7.2 5.5 3.7 16.7-5.2 16.7-5.7 0-9.4-3.6-9.4-9 0-3.4.6-4.7 2.8-6.6 3.1-2.7 9.1-3.2 11.8-1.1zm54.3 34.9c-6.8 13.6-16.4 23.7-29 30.6-7.1 3.9-8.9 6.6-6.4 9.8 2 2.4 5.2 1.6 13.5-3.3 11.1-6.4 21.8-17.5 27.3-28.1 5.2-10 5.4-13.5.5-14-3-.3-3.4.1-5.9 5zm20.8 1.5c-.7.3-2.4 2.9-3.6 5.8-7.5 16.8-23 32.9-39.8 41.1-6.2 3-7.6 5.1-5.8 8.4 1.5 2.8 4.1 2.5 11.2-1 12.4-6.2 26.8-18.7 34.5-30 3.4-5 10.3-18.4 10.3-20 0-1.2-3.7-5-4.7-4.9-.5 0-1.4.3-2.1.6zm17.4 7.5c-1 .5-2.9 3.5-4.3 6.6-8.7 19.6-25.3 37.2-45.8 48.2-5.1 2.8-9.5 5.6-9.8 6.3-.2.7-.1 2.2.4 3.5 1.3 3.4 5 2.8 15.1-2.5 11.9-6.3 24.8-16.9 33.5-27.8 7.7-9.5 17.6-27.4 17.1-30.8-.4-2.9-3.8-4.8-6.2-3.5z"/></g></svg>