<svg version="1" xmlns="http://www.w3.org/2000/svg" width="400" height="388" viewBox="0 0 300 291"><g fill="#353535"><path d="M39.1 2.6C26 6.1 13.4 16 7.3 27.6.8 39.9 1 35.2 1 145.2c0 68.7.3 101.3 1.1 105 3.5 17.1 17.4 32.2 34.8 38 6.6 2.3 6.9 2.3 92.6 2.6 89.9.3 99.6 0 109.7-3.9 11.6-4.4 24.5-17.2 28.8-28.6 2.5-6.8 4-15.9 4-25.2v-7.4l7.9-8.2c13.3-13.9 19.5-29.3 19.5-48.5s-6.3-34.7-19.6-48.5l-7.7-7.9-.3-45.1-.3-45-2.4-5.3c-1.4-3-4.3-6.9-6.8-9.2-8.5-7.4-1.8-7-115.7-6.9-85.9 0-103 .3-107.5 1.5zM248 20.5c1.6.8 3.4 2.4 4 3.4.6 1.2 1 13.4 1 32.2v30.1l-3.1-.6c-1.7-.3-3.8-.6-4.5-.6-1.2 0-1.4-4.3-1.4-24 0-25.5-.5-28.6-4.9-31-1.3-.7-35.7-1-103.1-1H34.8l-2.9 2.9-2.9 2.9v19.7c0 22.4-.3 23.1-6 12-3.1-6.1-3.5-7.6-3.5-14.4.1-6 .6-8.8 2.7-13.2 4.3-9.4 12.9-16.5 22.5-18.8 2.1-.5 48-.9 102.1-1 85.9-.1 98.7.1 101.2 1.4zM234.5 43v4.5h-196l-.3-4.8-.3-4.7 98.3.2 98.3.3V43zm.5 18.5V66H38v-9h197v4.5zm-.2 18.8l.3 4.7-95.8-.2C34.9 84.5 38 84.7 38 79c0-1.5.3-3 .7-3.3.3-.4 44.6-.6 98.2-.5l97.6.3.3 4.8zM25 95.5c2.8 1.9 8.1 4.4 11.7 5.5 6.3 1.9 9.1 2 106.2 2 65.4 0 100.9.4 103.3 1 5.9 1.7 6.8 3.8 6.8 16.7V132h-45.2c-26.9 0-47.1.5-49.7 1.1-12.5 2.8-25.3 13.2-30.9 24.9-12 25.2-.6 53.5 25.9 64.3 5.3 2.1 6.5 2.2 52.8 2.5l47.3.3-.4 11.7c-.3 9.6-.8 12.5-2.7 16.4-3.1 6.4-9.4 12.6-16.1 15.7l-5.5 2.6-90.4.3c-99.4.3-96.3.4-104.9-5.8-2.3-1.6-5.7-5.1-7.6-7.7-6.7-9.3-6.6-7.6-6.6-91.1 0-41.4.2-75.2.4-75.2s2.7 1.6 5.6 3.5zm250.1 49.1c10 17.7 7.3 42.5-6.4 58.1l-4 4.4-51.1-.3c-46-.3-51.5-.5-54.9-2-6.7-3-11.4-7.6-14.6-14-7.2-14.3-1.7-30.4 12.7-37.5l5.7-2.8 48.6-.5 48.6-.5 3.5-2.5c2-1.3 4.4-3.7 5.3-5.3.9-1.5 2.2-2.6 2.7-2.5.6.2 2.4 2.6 3.9 5.4z"/><path d="M161.5 161.4c-1.7.7-4.5 2.9-6.2 4.9-8.7 9.9-5.3 24 6.9 29.2 15.4 6.4 30.9-10.5 23.2-25.5-1.7-3.4-6.3-7.7-9.7-8.9-3.8-1.5-10.5-1.3-14.2.3z"/></g></svg>