<svg version="1" xmlns="http://www.w3.org/2000/svg" width="400" height="400" viewBox="0 0 300 300"><path d="M133 1.6c-33.5 4.3-65.1 19.6-88.4 43-20.1 20.1-33.7 44.7-40.4 72.8-2.4 10.1-2.6 13-2.7 32.1 0 16.6.4 22.8 1.8 29.5 4.4 20.5 13.6 41.7 25.4 58.3 7.7 10.8 23.6 26.6 34.8 34.6 9.9 7 28.9 16.6 40.5 20.4 30 9.9 64.9 9.4 95.6-1.3 20.6-7.3 39.8-19.5 55.9-35.5 20.9-20.9 34.1-45.1 40.7-74.6 2-9.1 2.3-13 2.3-30.9-.1-17.2-.4-22-2.2-30.2-3.1-13.9-6.6-23.7-12.9-36.3-16.5-33.2-45.7-59.7-80.1-72.7C185.2 4 174.1 1.9 154 1.5c-9.6-.2-19.1-.1-21 .1zm12 51.9V87h-4.7c-10.1 0-38.3-6-38.3-8.2 0-2.3 11.6-23.1 17.4-31.2 5.1-7.1 23.9-27.6 25.3-27.6.2 0 .3 15.1.3 33.5zm37.9-2.5c5.9 8.8 15.1 25.8 15.1 27.9 0 2.1-28.6 8.1-38.7 8.1H155V53.2l.1-33.7 10.7 11c5.9 6.1 13.6 15.2 17.1 20.5zm-61.5-21.3c-8.8 10.4-17.5 23.5-23.6 35.8-2.8 5.5-5.2 10.1-5.3 10.3C91.4 77 60 58.7 60 56.9c0-2.6 19.3-16.6 31.6-22.9 9.6-4.9 28.8-11.4 35.2-11.9.7-.1-1.7 3.4-5.4 7.6zm67.1-3.5c11.7 3.5 24.1 9.5 34.5 16.5 7.7 5.2 17 13 17 14.1 0 1.9-31.4 20.2-32.5 19-.1-.2-2.5-4.8-5.3-10.3-6.2-12.4-14.8-25.5-23.8-35.9l-6.8-7.8 3.5.7c1.9.3 7.9 2 13.4 3.7zM61.7 69.9c4.8 3.3 12.9 8 17.9 10.5l9.1 4.5-2.9 9.8c-3.4 11.5-6.4 28.2-7.4 41.1l-.7 9.2H48.9c-27.9 0-28.9-.1-28.9-1.9 0-4.2 2.2-18 4.1-25.5 2.6-10.4 7.8-23.2 13-32C40.9 79.2 51.7 64 52.5 64c.2 0 4.3 2.7 9.2 5.9zm193.5 4.2c13.7 19.1 21.9 40.7 24.3 64.1l.7 6.8h-57.8l-1.2-12.7c-1.3-13.1-4.9-31.1-8.2-40.9-1.1-3.2-2-5.9-2-6 0-.2 4.4-2.6 9.8-5.3 5.3-2.7 13.3-7.4 17.7-10.4 4.4-3.1 8.4-5.4 8.9-5.3.6.1 4 4.5 7.8 9.7zM122.8 94.4c4.8.8 11.7 1.7 15.5 2.1l6.7.7V145H87.5l.6-9.8c.9-12.3 3.2-25.2 6.5-36.7 1.4-5 2.8-9.3 3-9.6.2-.3 4 .4 8.4 1.7 4.4 1.3 12 3 16.8 3.8zm84.5 12.1c3.1 13 4.7 24.3 4.7 32.6v5.9h-57V97.2l6.8-.7c10.8-1.1 23.3-3.3 31.8-5.8l7.9-2.3 1.6 3.6c.9 1.9 2.8 8.5 4.2 14.5zM78 158.9c0 12.8 4.6 37 10.2 53 1.6 4.7 3.2 9.3 3.5 10.2.4 1.3-1.7 2.7-9 6.2-5.3 2.5-12.7 6.6-16.6 9.1-4 2.5-7.5 4.6-8 4.6s-2.9-2.4-5.3-5.3c-19-22.3-29.7-46.9-32.4-74.5l-.7-7.2H78v3.9zm67 25v28.9l-6.7.7c-9.8.9-24 3.3-29.7 5-2.7.8-5.6 1.5-6.3 1.5-4.1 0-13.4-37.2-14.5-58.3l-.4-6.7H145v28.9zm66.7-18.7c-.3 5.7-1.5 15-2.7 20.8-2.1 10.1-8.1 30-9.9 32.9-.7 1.2-2.2 1-9.2-.7-8.9-2.3-17-3.6-28.1-4.7l-6.8-.7V155h57.3l-.6 10.2zm68.3-8c0 5.1-3.1 21.9-5.5 30.1-3 10.3-6.9 19.3-13 29.7-4.7 8-16.9 23.8-19 24.6-.7.3-4.5-1.6-8.5-4.1-3.9-2.6-11.4-6.7-16.6-9.2-5.2-2.4-9.4-4.6-9.4-4.9 0-.3 1.5-4.9 3.4-10.3 4.7-13.6 8.4-30.4 9.8-45.4l1.2-12.7H280v2.2zm-135 94.4v28.5l-2.8-2c-4.1-2.9-14.3-14-20.7-22.5-6-8-15.5-23.4-15.5-25.3 0-.6 1.7-1.7 3.7-2.4 5.8-1.9 23.2-4.7 29.6-4.8l5.7-.1v28.6zm29-27.1c11.7 1.9 20 4.2 20 5.6 0 1.5-7.5 14.3-12.8 21.8-6.2 8.7-16 19.9-21.6 24.4l-4.6 3.8V223h4.8c2.6 0 9 .7 14.2 1.5zm-74.5 14.3c6.2 11.9 15.8 25.4 24.4 34.4 5.3 5.6 4.6 5.9-6.9 2.8-10.8-3-17.3-5.5-27.3-10.7-8.6-4.4-23.7-14.7-23.7-16.1 0-1.7 26.4-16.2 29.5-16.2.5 0 2.4 2.6 4 5.8zm112.3-2.8c7.8 3.5 22.2 12.1 22.2 13.1 0 1.6-15.4 11.9-24.7 16.7-10 5.1-25.7 10.6-33.5 11.8l-4.3.7 4.2-4.4c6.7-7.1 17.7-22.4 23-32 2.6-4.9 5.1-8.9 5.6-8.9.4 0 3.8 1.4 7.5 3z" fill="#353535"/></svg>